<?xml version="1.0" encoding="utf-8"?>
<!-- Generator: Adobe Illustrator 23.0.5, SVG Export Plug-In . SVG Version: 6.00 Build 0)  -->
<svg version="1.1" id="Capa_1" xmlns="http://www.w3.org/2000/svg" xmlns:xlink="http://www.w3.org/1999/xlink" x="0px" y="0px"
	 viewBox="0 0 1920 1080" style="enable-background:new 0 0 1920 1080;" xml:space="preserve">
<style type="text/css">
	.st0{fill:#E6E6E6;}
	.st1{fill:#FFFFFF;}
</style>
<path class="st0" d="M1302.8,384.5c-0.8-64.6-0.7-129.2,0-193.7c0.1-14.4-4.7-21.4-18.1-27C1169.6,115.6,1052.9,65.7,938,17
	c0,18-5,620.1-5,649c39.6-16.3,82.8-34.5,123.3-48.3c24.1-8.2,29.4-21.3,29-45c-1.4-92.1-0.6-184.2-0.6-276.3
	c0-51.5,0-51.5,52.5-41.6c13.1,2.5,26.2,4.5,39.3,6.8c0.1,48.5-0.1,97,0.8,145.4c0.2,8.8,0.7,16,0.7,27
	c32.8-7.7,70.3-16.9,103.4-23.1C1298,407.8,1303,400.9,1302.8,384.5z"/>
<path class="st0" d="M751.6,273.8c0-9.6-0.7-18.3-11-23.2c-45.5-21.2-90.9-42.5-136.3-63.8c0,0,0,0,0,0c-2-1.7-4-3.4-5.9-5.1
	c-2.7,106.6-2.6,213.2,0,319.8c2-1.7,4-3.4,6-5.1c45.4-21.3,90.8-42.7,136.3-63.9c10.4-4.8,11-13.6,11-23.2
	C751.6,364.1,751.6,318.9,751.6,273.8z"/>
<g>
	<path class="st1" d="M71.8,1036.7V850.3h76.7c16.9,0,30.4,1,40.3,3c9.9,2,18.2,5.2,24.9,9.5c8.6,5.8,15,13,19.2,21.6
		c4.2,8.6,6.3,18.8,6.3,30.6c0,20.8-6.2,36.8-18.5,47.9c-12.3,11.1-30.1,16.6-53.3,16.6h-35.8v57H71.8z M131.6,934.1h19.2
		c12.5,0,20.8-1.4,25-4.2c4.2-2.8,6.3-7.7,6.3-14.8c0-7.2-2-12.1-6.1-14.9c-4-2.8-12.5-4.2-25.3-4.2h-19.2V934.1z"/>
	<path class="st1" d="M230.4,1036.7l65.5-186.3h60.6l65.5,186.3h-59.3l-7-24.7h-59.3l-7.2,24.7H230.4z M307.3,972.9h37.6l-18.6-64.5
		L307.3,972.9z"/>
	<path class="st1" d="M559.9,964.4h56.7c-1.7,24.5-10.3,43.6-25.9,57.1c-15.6,13.5-36.7,20.3-63.4,20.3c-29.9,0-53.3-8.7-70.5-26.2
		c-17.1-17.5-25.7-41.5-25.7-71.9c0-30.4,8.5-54.3,25.4-71.8c16.9-17.5,40.1-26.3,69.3-26.3c27,0,48.2,6.5,63.7,19.5
		c15.5,13,24.1,31.6,26,55.8h-57.3c-0.8-9.5-3.9-16.7-9.2-21.6c-5.3-4.8-12.8-7.3-22.4-7.3c-11.7,0-20.5,4.3-26.4,12.8
		c-5.9,8.6-8.8,21.5-8.8,38.8c0,16.9,3.1,29.8,9.4,38.5c6.2,8.7,15.4,13,27.4,13c9.3,0,16.6-2.7,22.1-8
		C555.8,981.9,559,974.3,559.9,964.4z"/>
	<path class="st1" d="M623.4,1036.7l65.5-186.3h60.6l65.5,186.3h-59.3l-7-24.7h-59.3l-7.2,24.7H623.4z M700.3,972.9h37.6l-18.6-64.5
		L700.3,972.9z"/>
	<path class="st1" d="M823.4,978.6h58.2c1.6,6.7,4.5,11.6,8.7,14.5c4.2,3,10.5,4.4,18.8,4.4c7,0,12.5-1.2,16.5-3.6
		c4-2.4,6-5.7,6-9.9c0-6.7-8.4-12.2-25.2-16.4c-3.4-0.8-5.9-1.5-7.7-1.9c-13.7-3.5-24.7-6.8-32.8-9.7c-8.1-2.9-14.1-5.6-17.8-8.2
		c-7.2-5.1-12.5-11.3-16.1-18.5c-3.6-7.2-5.4-15.3-5.4-24.5c0-18.5,7-33,20.9-43.5c13.9-10.5,33.1-15.8,57.4-15.8
		c23.9,0,42.8,5,56.5,15.1c13.7,10.1,21.5,24.5,23.3,43.3H928c-0.9-5.5-3.4-9.6-7.3-12.3c-3.9-2.7-9.5-4-16.8-4
		c-6.4,0-11.2,1.1-14.3,3.2c-3.1,2.1-4.7,5.3-4.7,9.6c0,6.2,8.2,11.3,24.5,15.4c1.4,0.4,2.5,0.7,3.3,0.9c2.4,0.6,5.9,1.5,10.8,2.7
		c21.7,5.5,35.8,10.5,42.5,14.9c8.3,5.5,14.3,11.7,18.1,18.7c3.8,7,5.7,15.3,5.7,24.8c0,20.6-7.2,36.4-21.6,47.4
		c-14.4,11-35,16.6-61.8,16.6c-24.7,0-44.3-5.5-58.8-16.6C833.3,1014.2,825.2,998.7,823.4,978.6z"/>
	<path class="st1" d="M1070.9,1036.7h-54.1V850.3h72.9l25.8,93c0.3,1.3,1,4.2,2,8.7c1,4.5,2.4,10.7,4.3,18.7
		c1.2-6.2,2.3-11.7,3.3-16.4c1-4.7,1.9-8.2,2.7-10.6l26.4-93.3h72.7v186.3h-54.1l0.5-91.7c0-5.6,0-11,0.1-16.3
		c0-5.3,0.1-10.7,0.2-16.4c-2,9.6-4.5,20.1-7.3,31.5l-0.4,1.6l-23,91.2h-41.7l-23.3-89.2c-1.1-4-2.2-8.7-3.3-13.9
		c-1.1-5.2-2.5-12.3-4.3-21.3c0.3,8,0.4,14.9,0.6,20.6c0.1,5.7,0.2,10.3,0.2,13.8V1036.7z"/>
	<path class="st1" d="M1243.7,1036.7l65.5-186.3h60.6l65.5,186.3H1376l-7-24.7h-59.3l-7.2,24.7H1243.7z M1320.6,972.9h37.6
		l-18.6-64.5L1320.6,972.9z"/>
	<path class="st1" d="M1486,1036.7v-68.9l-68.6-117.4h66.3l32.1,63.5l32.4-63.5h64.5l-66.9,117.4v68.9H1486z"/>
	<path class="st1" d="M1615.4,943.7c0-30.4,8.7-54.3,26-71.8c17.3-17.5,41-26.3,70.9-26.3c29.9,0,53.4,8.8,70.7,26.3
		c17.3,17.5,25.9,41.5,25.9,71.8c0,30.3-8.6,54.2-25.9,71.8c-17.3,17.6-40.9,26.4-70.7,26.4c-29.9,0-53.6-8.8-70.9-26.4
		C1624,997.9,1615.4,974,1615.4,943.7z M1675.7,943.7c0,17.6,3,30.6,8.9,38.8c5.9,8.3,15.1,12.4,27.7,12.4
		c12.5,0,21.6-4.1,27.4-12.3c5.8-8.2,8.7-21.2,8.7-38.9c0-17.8-2.9-30.8-8.7-39c-5.8-8.2-15-12.3-27.4-12.3
		c-12.6,0-21.8,4.1-27.7,12.4C1678.6,913,1675.7,926,1675.7,943.7z"/>
</g>
<path class="st1" d="M776.7,430.1c-15.9-2.5-19.6-8.6-19.4-23.3c0.8-43,1.1-86.1-0.2-129.1c-0.5-17.1,5.5-22.1,21.6-24.5
	c44.5-6.7,88.6-15.5,132.9-23.5C919,229,932,227,937,226c0-6,1-146,1-209c-82.3,38.8-172.7,79.8-254.6,119.5
	c-28.8,14-60.5,23.2-85.1,45.2c2.1,4.2,4.4,8.4,8,11.7c35.5,20.6,72.5,38.2,109.6,55.4c19.1,8.9,28.7,20.3,27.9,42.1
	c-1.2,33.8-1.2,67.6,0,101.4c0.8,21.8-8.9,33.2-28,42.1c-37.1,17.2-74.1,34.9-109.5,55.5c-3.6,3.2-5.9,7.4-8,11.6
	c1.6,2.4,2.7,5.9,4.9,7C712.1,560.3,824,614.3,933,666c0-12,1.2-150.1,1-208c-1,0-3.5-0.1-3.5-0.1
	C879.3,448.5,828.2,438.2,776.7,430.1z"/>
</svg>
