<?xml version="1.0" encoding="utf-8"?>
<!-- Generator: Adobe Illustrator 23.0.5, SVG Export Plug-In . SVG Version: 6.00 Build 0)  -->
<svg version="1.1" id="Capa_1" xmlns="http://www.w3.org/2000/svg" xmlns:xlink="http://www.w3.org/1999/xlink" x="0px" y="0px"
	 viewBox="0 0 1920 1080" style="enable-background:new 0 0 1920 1080;" xml:space="preserve">
<style type="text/css">
	.st0{fill:#FFFFFF;}
</style>
<path class="st0" d="M963,94.6c60.6,0,119.5,11.9,174.8,35.2c53.5,22.6,101.5,54.9,142.8,96.1c41.2,41.2,73.6,89.1,96.3,142.5
	c23.4,55.3,35.3,114,35.3,174.5c0,60.5-11.9,119.3-35.3,174.5c-22.6,53.4-55,101.4-96.3,142.5c-41.2,41.2-89.3,73.5-142.8,96.1
	c-55.4,23.4-114.2,35.2-174.8,35.2c-60.6,0-119.5-11.9-174.8-35.2c-53.5-22.6-101.5-54.9-142.8-96.1
	c-41.2-41.2-73.6-89.1-96.3-142.5c-23.4-55.3-35.3-114-35.3-174.5c0-60.5,11.9-119.3,35.3-174.5c22.6-53.4,55-101.3,96.3-142.5
	c41.2-41.2,89.3-73.5,142.8-96.1C843.5,106.4,902.4,94.6,963,94.6z M963,83.3c-254.3,0-460.5,205.8-460.5,459.7
	c0,253.9,206.2,459.8,460.5,459.8c254.3,0,460.5-205.8,460.5-459.8C1423.5,289.1,1217.3,83.3,963,83.3z"/>
<path class="st0" d="M952,264.2l11-19.1l11,19.1H952z"/>
<path class="st0" d="M974,821.8l-11,19.1l-11-19.1H974z"/>
<path class="st0" d="M922.9,266.9l9-20.1l12.9,17.8L922.9,266.9z"/>
<path class="st0" d="M1003.1,819.1l-9,20.1l-13-17.8L1003.1,819.1z"/>
<path class="st0" d="M894.2,272.6l6.8-20.9l14.8,16.4L894.2,272.6z"/>
<path class="st0" d="M1031.8,813.4l-6.8,20.9l-14.8-16.3L1031.8,813.4z"/>
<path class="st0" d="M866.2,281.2l4.6-21.5l16.4,14.7L866.2,281.2z"/>
<path class="st0" d="M1059.8,804.8l-4.6,21.5l-16.4-14.7L1059.8,804.8z"/>
<path class="st0" d="M839.4,292.8l2.3-21.9l17.8,12.9L839.4,292.8z"/>
<path class="st0" d="M1086.7,793.2l-2.3,21.9l-17.8-13L1086.7,793.2z"/>
<path class="st0" d="M813.8,307v-22l19.1,11L813.8,307z"/>
<path class="st0" d="M1112.2,779v22l-19.1-11L1112.2,779z"/>
<path class="st0" d="M789.9,323.9l-2.3-21.9l20.1,8.9L789.9,323.9z"/>
<path class="st0" d="M1136,762.1l2.3,21.9l-20.1-8.9L1136,762.1z"/>
<path class="st0" d="M768,343.2l-4.6-21.5l21,6.8L768,343.2z"/>
<path class="st0" d="M1158,742.8l4.6,21.5l-21-6.8L1158,742.8z"/>
<path class="st0" d="M748.1,364.6l-6.8-20.9l21.6,4.6L748.1,364.6z"/>
<path class="st0" d="M1177.9,721.4l6.8,20.9l-21.5-4.6L1177.9,721.4z"/>
<path class="st0" d="M762.8,737.7l-21.6,4.6l6.8-20.9L762.8,737.7z"/>
<path class="st0" d="M1163.1,348.3l21.6-4.6l-6.8,20.9L1163.1,348.3z"/>
<path class="st0" d="M784.3,757.6l-20.9,6.8l4.6-21.5L784.3,757.6z"/>
<path class="st0" d="M1141.7,328.4l21-6.8l-4.6,21.6L1141.7,328.4z"/>
<path class="st0" d="M807.8,775l-20.1,9l2.3-21.9L807.8,775z"/>
<path class="st0" d="M1118.2,311l20.1-9l-2.3,21.9L1118.2,311z"/>
<path class="st0" d="M832.9,790l-19.1,11v-22L832.9,790z"/>
<path class="st0" d="M1093.1,296l19.1-11.1l0,22L1093.1,296z"/>
<path class="st0" d="M859.5,802.2l-17.8,12.9l-2.3-21.9L859.5,802.2z"/>
<path class="st0" d="M1066.5,283.8l17.8-13l2.3,21.9L1066.5,283.8z"/>
<path class="st0" d="M887.2,811.5l-16.4,14.7l-4.6-21.5L887.2,811.5z"/>
<path class="st0" d="M1038.8,274.4l16.4-14.7l4.6,21.6L1038.8,274.4z"/>
<path class="st0" d="M915.7,818L901,834.4l-6.8-20.9L915.7,818z"/>
<path class="st0" d="M1010.3,268l14.7-16.4l6.8,20.9L1010.3,268z"/>
<path class="st0" d="M944.7,821.4l-12.9,17.8l-9-20.1L944.7,821.4z"/>
<path class="st0" d="M981.2,264.6l12.9-17.8l9,20.1L981.2,264.6z"/>
<path class="st0" d="M836.2,228.2l-14.4,6.5c-7.1,3.2-11.8,1.3-14.9-5.8l-15.7-35c-3.1-6.9-1.2-11.6,5.6-14.7l14.5-6.5l0.7,0.3
	l6,13.4l-5.4,2.4l-3.8-8.3l-9.1,4.1c-3.7,1.7-3.4,4.2-2,7.5l15,33.4c1.5,3.3,3.4,5.1,7.2,3.4l8.8-4l-3.9-8.7l5.4-2.4l6.2,13.8
	L836.2,228.2z"/>
<path class="st0" d="M848.7,223.1l-1.6-5.3l4.7-1.4l-14.2-47.1l-4.7,1.4l-1.6-5.3l30.7-9.2l3.8,12.7l-5.8,1.7l-2.1-6.8l-13.8,4.1
	l5.9,19.7l8.8-2.6l-1.3-4.2l5.3-1.6l4.2,13.9l-5.3,1.6l-1.3-4.2l-8.8,2.6l6.3,20.8l13.8-4.1l-2.2-7.2l5.8-1.7l3.9,13L848.7,223.1z"
	/>
<path class="st0" d="M922.6,206.2l-0.8-5.5l4.1-0.6l-6.7-45.9l-0.3,0l-4.4,38.2l-4.3,0.6l-14.9-35.5l-0.3,0l6.7,45.9l5.1-0.7
	l0.8,5.5l-16,2.3l-0.8-5.5l4.8-0.7l-7.1-48.6l-4.8,0.7l-0.8-5.5l14.9-2.1l13.1,31.7l0.1,0l3-34l14.8-2.1l0.8,5.5l-4.7,0.7l7.1,48.6
	l4.8-0.7l0.8,5.5L922.6,206.2z"/>
<path class="st0" d="M949.7,203.7l0-5.6l4.9,0L955,149l-4.9,0l0-5.6l32.1,0.3l-0.1,13.2l-6-0.1l0.1-7.1l-14.4-0.1l-0.2,20.6l9.2,0.1
	l0-4.4l5.6,0.1l-0.1,14.5l-5.6-0.1l0-4.4l-9.2-0.1l-0.2,21.7l14.4,0.1l0.1-7.5l6,0.1l-0.1,13.6L949.7,203.7z"/>
<path class="st0" d="M1036.3,155.8l-8.2,54.4l-5.6-0.9l-10-50l-0.3-0.1l-6.3,41.5l5,0.8l-0.8,5.5l-15.6-2.4l0.8-5.5l4.7,0.7
	l7.3-48.6l-4.7-0.7l0.8-5.5l12.5,1.9l8.7,43.7l0.4,0.1l5.4-35.9l-5.4-0.8l0.8-5.5l16.1,2.5l-0.8,5.5L1036.3,155.8z"/>
<path class="st0" d="M1082.8,177.8l2.6-8.5l-6.3-1.9l-14,46.5l4.7,1.4l-1.6,5.3l-15.9-4.8l1.6-5.3l4.7,1.4l14-46.5l-6.3-1.9
	l-2.6,8.5l-5.8-1.7l4.3-14.3l30.7,9.3l-4.3,14.3L1082.8,177.8z"/>
<path class="st0" d="M1101.2,234.6c-8.1-3.7-12-9.3-8.1-17.8l14.9-33.1c3.8-8.5,10.7-9.2,18.7-5.6c7.9,3.6,12,9.3,8.2,17.7l-15,33.3
	C1116.2,237.3,1109.2,238.1,1101.2,234.6z M1129.1,192.3c1.8-3.9-0.8-7.1-4.8-9c-4.5-2-8-1.5-9.8,2.5l-15.6,34.5
	c-1.8,4,0.6,7.1,4.7,8.9c3.8,1.7,8.1,1.7,9.9-2.2L1129.1,192.3z"/>
<path class="st0" d="M754.1,884.4l2.7-4.9l4.3,2.4l24-42.9l-4.3-2.4l2.7-4.9l14.4,8.1l-2.7,4.9l-4.3-2.4l-23.8,42.4l12.5,7l3.7-6.5
	l5.2,2.9l-6.6,11.9L754.1,884.4z"/>
<path class="st0" d="M800.1,908.3l2.2-5.1l4.5,1.9l19.1-45.3l-4.5-1.9l2.2-5.1l15.2,6.4l-2.2,5.1l-4.5-1.9L813,907.7l4.5,1.9
	l-2.2,5.1L800.1,908.3z"/>
<path class="st0" d="M864.6,930.6l1.5-5.4l3.9,1.1l12.3-44.7l-0.3-0.1l-19.4,33.3l-4.2-1.1l0.5-38.4l-0.3-0.1l-12.3,44.7l5,1.3
	l-1.5,5.4l-15.6-4.3l1.5-5.4l4.7,1.3l13-47.4l-4.7-1.3l1.5-5.4l14.5,4l-0.7,34.3l0.1,0l16.4-30l14.5,4l-1.5,5.4l-4.6-1.3L876,928
	l4.7,1.3l-1.5,5.4L864.6,930.6z"/>
<path class="st0" d="M922.4,940.7l0.6-5.6l4.8,0.5l1.8-16.3l-15.9-1.7l-1.8,16.3l4.8,0.5l-0.6,5.5l-16.1-1.7l0.6-5.6l4.8,0.5
	l4.7-42.8c1-8.8,7.1-11.9,15.9-10.9c8.8,0.9,14.1,5.5,13.2,13.9l-4.7,42.9l4.5,0.5l-0.6,5.6L922.4,940.7z M932.6,892
	c0.4-4.1-3.6-6.2-7.4-6.6c-3.9-0.4-8.1,0.8-8.5,5l-2.3,21.1l15.9,1.7L932.6,892z"/>
<path class="st0" d="M974.1,927.6l-0.3-7.7l7.5-0.4l0.3,7.7L974.1,927.6z"/>
<path class="st0" d="M1017.1,938.9l-0.9-5.5l5-0.8l-7.5-48.1l-5.6,0.9l-0.9-5.9l12.2-1.9l8.4,54.1l4.7-0.7l0.9,5.5L1017.1,938.9z"/>
<path class="st0" d="M1071.7,927.8l-16.4,4.5l-0.6-0.4l-3.5-12.9l5.8-1.6l2,7.5l11.1-3c2.9-0.8,3.7-3.1,2.9-5.9l-4.5-16.4
	c-0.6,2.7-2.7,4.1-5,4.7l-8.7,2.4c-4.5,1.2-8.4,0-9.8-5.1l-4.5-16.6c-1.7-6.4,0.4-11.8,5.9-13.4l10.3-2.8c6.1-1.7,10.8,1.2,12.7,8.2
	l10.1,37.2C1081.4,921,1079.1,925.7,1071.7,927.8z M1062.8,878.4c-1-3.9-3.2-4.5-6.8-3.6l-5.5,1.5c-3.4,0.9-4.7,2.3-3.7,6.1
	l4.1,15.1c0.7,2.4,2.2,3.3,4.7,2.6l7.8-2.1c2.4-0.7,3.9-2.7,3.3-4.7L1062.8,878.4z"/>
<path class="st0" d="M1100.7,918.1l-2-5.2l4.7-1.8l-17.6-45.4l-5.3,2.1l-2.2-5.6l11.5-4.5l19.8,51l4.5-1.7l2,5.2L1100.7,918.1z"/>
<path class="st0" d="M1151.5,895.7l-9.4,4.9c-5.6,2.9-10.8,1.1-14.1-5.3l-17.7-34.2c-3.4-6.5-2.1-11.6,4.8-15.1l15.1-7.8l0.7,0.2
	l6.1,11.8l-5.3,2.8l-3.5-6.7l-10.2,5.3c-2.7,1.4-3,3.8-1.6,6.4l7.8,15.1c0-2.8,1.8-4.5,3.9-5.7l8-4.1c4.2-2.2,8.2-1.7,10.6,2.9
	l7.9,15.3C1157.6,887.3,1156.6,893,1151.5,895.7z M1141.6,871.1c-1.2-2.2-2.9-2.7-5.1-1.6l-7.2,3.7c-2.2,1.2-3.2,3.4-2.3,5.3
	l7.1,13.8c1.8,3.6,4.1,3.8,7.4,2.1l5-2.6c3.2-1.6,4.1-3.2,2.3-6.8L1141.6,871.1z"/>
<path class="st0" d="M618.3,744l-79.7-377.6h849.6L1307.6,744l-5.8-1.6c-109.9-29.8-223.9-44.9-338.8-44.9
	c-114.9,0-229,15.1-338.8,45L618.3,744z M552.7,381.1l74.3,352c109.1-29.1,222.1-43.8,336-43.8c113.9,0,226.9,14.7,336,43.8
	l75.2-352H552.7z"/>
<path class="st0" d="M1290.5,719.3l-5.7-1.4c-104.7-26.4-212.9-39.7-321.8-39.7c-108.8,0-217.1,13.4-321.7,39.7l-5.8,1.5l-69-327.1
	h793.9L1290.5,719.3z M963,666.7c107.8,0,215,13,318.8,38.6l64.4-301.6H580.6l63.7,301.6C748,679.7,855.2,666.7,963,666.7z"/>
<path class="st0" d="M813,516.8l-18.5-4.6c-10.3-2.5-15.5-5.2-15.5-13.5c0-7.7,6.4-16,24.5-16c6.6,0,12.9,1.5,17.1,2.8v19.6h36.1
	v-42.7l-2.3-0.9c-13.6-5.2-33-8.4-51.8-8.4c-21.2,0-37.7,4.9-48.9,14.7c-9.9,8.6-15.2,20.6-15.2,34.7c0,25.9,12.6,39.2,45,47.6
	l16.9,4.4c20.7,5.3,22.4,10.3,22.4,15.4c0,11-8.4,17.1-23.7,17.1c-6.9,0-14.9-0.4-22.3-2.9V563h-39.1v46.7l2.4,0.8
	c18.3,6,35.7,8.7,56.2,8.7c21.8,0,38.8-5.1,50.4-15.2c10.9-9.3,16.6-22.8,16.6-38.9C863.3,529.5,833,521.9,813,516.8z"/>
<path class="st0" d="M962.2,620c-46.8,0-85.5-37.8-85.5-85.1c0-47,38.3-85.3,86-85.3c47.2,0,85.3,37.6,85.3,84.3
	C1047.9,581.7,1009.4,620,962.2,620z M962.2,490.2c-25,0-44.7,19.7-44.7,44.3c0,25.2,20.4,44.9,44.7,44.9
	c24.8,0,44.9-20.4,44.9-45.4C1007.1,509.9,987.2,490.2,962.2,490.2z"/>
<path class="st0" d="M1140.8,563v19.6h-29.1v-90.1h10.5v-13v-23.4h-62.4v23.4v13h10.4v90.1h-10.4v10.5v23.4h82.5h11.8h5.1h7.9h11.1
	h1.8v-6.8v-28.3V575v-10.6V563H1140.8z"/>
<path class="st0" d="M699.6,139.6l-29.6,21l-2.4-35L699.6,139.6z"/>
<path class="st0" d="M665,164.3l-27.7,23.5l-5.5-34.6L665,164.3z"/>
<path class="st0" d="M632.8,191.9l-25.5,25.8l-8.5-34L632.8,191.9z"/>
<path class="st0" d="M603.1,222.2L580,250.1L568.5,217L603.1,222.2z"/>
<path class="st0" d="M576.2,255l-20.6,29.9l-14.4-32L576.2,255z"/>
<path class="st0" d="M552.3,290l-17.9,31.6L517.3,291L552.3,290z"/>
<path class="st0" d="M531.5,327l-15,33l-19.7-29L531.5,327z"/>
<path class="st0" d="M514.1,365.7L502,399.9l-22.2-27.2L514.1,365.7z"/>
<path class="st0" d="M500.2,405.8l-9,35.1l-24.5-25.1L500.2,405.8z"/>
<path class="st0" d="M489.8,446.9l-5.9,35.8l-26.6-22.8L489.8,446.9z"/>
<path class="st0" d="M483.1,488.8l-2.7,36.1l-28.5-20.4L483.1,488.8z"/>
<path class="st0" d="M480.1,531.1l0.5,36.3l-30.2-17.9L480.1,531.1z"/>
<path class="st0" d="M480.9,573.5l3.7,36.1l-31.7-15.1L480.9,573.5z"/>
<path class="st0" d="M485.3,615.7l6.8,35.6L459.2,639L485.3,615.7z"/>
<path class="st0" d="M493.5,657.3l9.9,34.9l-33.8-9.4L493.5,657.3z"/>
<path class="st0" d="M505.3,698l12.9,33.9l-34.5-6.4L505.3,698z"/>
<path class="st0" d="M520.6,737.6l15.9,32.6l-35-3.3L520.6,737.6z"/>
<path class="st0" d="M539.3,775.6l18.7,31.1l-35.1-0.2L539.3,775.6z"/>
<path class="st0" d="M561.3,811.9l21.3,29.4l-35,2.8L561.3,811.9z"/>
<path class="st0" d="M586.4,846.1l23.8,27.3l-34.6,5.9L586.4,846.1z"/>
<path class="st0" d="M614.5,878l26.1,25.1l-34,8.9L614.5,878z"/>
<path class="st0" d="M645.2,907.2l28.3,22.8l-33,11.9L645.2,907.2z"/>
<path class="st0" d="M678.4,933.7l30.2,20.2l-31.9,14.7L678.4,933.7z"/>
<path class="st0" d="M713.7,957.2l31.8,17.5l-30.4,17.5L713.7,957.2z"/>
<path class="st0" d="M751,977.4l33.2,14.6l-28.8,20.1L751,977.4z"/>
<path class="st0" d="M790,994.3l34.4,11.6l-26.9,22.5L790,994.3z"/>
<path class="st0" d="M991.7,60.1l-36.3,0l18.2-30L991.7,60.1z"/>
<path class="st0" d="M941.9,61.5l-36.2,3.2l15.5-31.5L941.9,61.5z"/>
<path class="st0" d="M897,66l-35.7,6.4l12.7-32.7L897,66z"/>
<path class="st0" d="M855.2,73.7l-35.1,9.5l9.8-33.7L855.2,73.7z"/>
<path class="st0" d="M814.3,85l-34.1,12.5l6.8-34.4L814.3,85z"/>
<path class="st0" d="M774.5,99.8l-32.9,15.5l3.7-34.9L774.5,99.8z"/>
<path class="st0" d="M736.2,118l-31.4,18.3l0.6-35L736.2,118z"/>
<path class="st0" d="M830.3,1007.8l35.3,8.6l-24.8,24.8L830.3,1007.8z"/>
<path class="st0" d="M871.6,1017.6l35.9,5.5l-22.6,26.9L871.6,1017.6z"/>
<path class="st0" d="M913.6,1023.9l36.2,2.3l-20.1,28.8L913.6,1023.9z"/>
<path class="st0" d="M956,1026.3l36.3-0.9l-17.5,30.4L956,1026.3z"/>
<path class="st0" d="M998.4,1025.1l36.1-4.1l-14.8,31.8L998.4,1025.1z"/>
<path class="st0" d="M1040.6,1020.1l35.6-7.2l-11.9,33L1040.6,1020.1z"/>
<path class="st0" d="M1082.2,1011.5l34.8-10.3l-9,33.9L1082.2,1011.5z"/>
<path class="st0" d="M1122.9,999.3l33.8-13.3l-5.9,34.6L1122.9,999.3z"/>
<path class="st0" d="M1162.3,983.5l32.5-16.2l-2.9,34.9L1162.3,983.5z"/>
<path class="st0" d="M1200.2,964.3l30.9-19l0.2,35L1200.2,964.3z"/>
<path class="st0" d="M1236.2,941.9l29.1-21.7l3.3,34.9L1236.2,941.9z"/>
<path class="st0" d="M1270.2,916.5l27.1-24.1l6.3,34.5L1270.2,916.5z"/>
<path class="st0" d="M1301.8,888.1l24.9-26.4l9.3,33.8L1301.8,888.1z"/>
<path class="st0" d="M1330.7,857.1l22.4-28.5l12.3,32.8L1330.7,857.1z"/>
<path class="st0" d="M1356.8,823.6l19.9-30.4l15.1,31.7L1356.8,823.6z"/>
<path class="st0" d="M1379.9,788.1l17.1-32l17.8,30.2L1379.9,788.1z"/>
<path class="st0" d="M1399.8,750.6l14.2-33.3l20.4,28.5L1399.8,750.6z"/>
<path class="st0" d="M1416.3,711.5l11.3-34.5l22.9,26.6L1416.3,711.5z"/>
<path class="st0" d="M1429.2,671.1l8.2-35.3l25.1,24.5L1429.2,671.1z"/>
<path class="st0" d="M1438.6,629.8l5.1-35.9l27.2,22.2L1438.6,629.8z"/>
<path class="st0" d="M1444.3,587.7l1.9-36.2l29,19.7L1444.3,587.7z"/>
<path class="st0" d="M1446.3,545.4l-1.3-36.2l30.7,17.1L1446.3,545.4z"/>
<path class="st0" d="M1444.6,503l-4.5-36l32,14.4L1444.6,503z"/>
<path class="st0" d="M1439.1,460.9l-7.7-35.4l33.2,11.5L1439.1,460.9z"/>
<path class="st0" d="M1430,419.5l-10.7-34.6l34.1,8.6L1430,419.5z"/>
<path class="st0" d="M1417.2,379.1l-13.7-33.6l34.7,5.5L1417.2,379.1z"/>
<path class="st0" d="M1401,339.9l-16.7-32.2l35.1,2.5L1401,339.9z"/>
<path class="st0" d="M1381.4,302.3l-19.4-30.6l35.1-0.6L1381.4,302.3z"/>
<path class="st0" d="M1358.5,266.6l-22-28.8l34.9-3.7L1358.5,266.6z"/>
<path class="st0" d="M1332.6,233l-24.5-26.8l34.5-6.7L1332.6,233z"/>
<path class="st0" d="M1303.8,201.8l-26.7-24.5l33.7-9.7L1303.8,201.8z"/>
<path class="st0" d="M1272.4,173.3l-28.8-22.1l32.8-12.6L1272.4,173.3z"/>
<path class="st0" d="M1238.6,147.6l-30.6-19.5l31.5-15.5L1238.6,147.6z"/>
<path class="st0" d="M1202.7,125l-32.2-16.7l30-18.2L1202.7,125z"/>
<path class="st0" d="M1164.9,105.6l-33.6-13.8l28.3-20.7L1164.9,105.6z"/>
<path class="st0" d="M1124.3,88.4l-34.4-11.7l27-22.4L1124.3,88.4z"/>
<path class="st0" d="M1082.9,74.7l-35.8-6.3l23.2-26.3L1082.9,74.7z"/>
<path class="st0" d="M1037.9,65.3l-36-4.6l21.9-27.4L1037.9,65.3z"/>
</svg>
