<?xml version="1.0" encoding="utf-8"?>
<!-- Generator: Adobe Illustrator 23.0.5, SVG Export Plug-In . SVG Version: 6.00 Build 0)  -->
<svg version="1.1" id="Capa_1" xmlns="http://www.w3.org/2000/svg" xmlns:xlink="http://www.w3.org/1999/xlink" x="0px" y="0px"
	 viewBox="0 0 1920 1080" style="enable-background:new 0 0 1920 1080;" xml:space="preserve">
<style type="text/css">
	.st0{fill:#FFFFFF;}
</style>
<g>
	<path class="st0" d="M1491.6,478.1c-26.2-233.8-224.7-422.5-473.5-425.7c-245.4-3.2-457.6,181-484.8,427.6
		c-12.4,112.2,10.4,217.2,71.6,312.1c84.5,131,206,203.8,360.4,223.1c-4.1,5.7-9.1,10.8-15.4,14.4c-2,1.2-2.4,2.4-1.7,4.5
		c2,6.5,7.6,10,14.3,8.8c4.7-0.9,8.6-3.4,12-6.5c0.8-0.7,1.5-2,2.7-1.4c1.3,0.7,0.6,2.2,0.4,3.3c-1.3,5.6-4.1,10.5-8.5,14.2
		c-1.8,1.5-1.7,2.7-0.5,4.5c4.6,6.7,13,6.8,17.6,0.2c0.9-1.3,1.7-2.8,2.4-4.3c0.5-0.9,0.7-2.1,2-1.8c1.2,0.2,1.1,1.6,1.2,2.5
		c0.2,3.9-0.4,7.7-2,11.3c-0.9,2-0.2,2.7,1.5,3.4c14.2,5.7,28.3,5.8,42.4,0c2.1-0.8,2.3-1.7,1.5-3.7c-1.5-3.6-2.1-7.4-1.9-11.3
		c0-0.9,0.2-1.9,1.2-2.1c1.1-0.3,1.4,0.8,1.8,1.5c0.8,1.4,1.4,3,2.3,4.4c4.5,6.7,13.3,6.6,17.8-0.1c1.1-1.7,1.4-2.8-0.5-4.4
		c-4.6-3.9-7.4-8.9-8.7-14.8c-0.2-1-0.5-2.1,0.5-2.7c1.1-0.7,1.8,0.4,2.4,1.1c3.3,3.2,7,5.7,11.6,6.7c6.9,1.5,12.8-1.8,14.9-8.2
		c0.8-2.3,0.5-3.7-1.8-5c-6.2-3.6-11.2-8.4-15.3-14.5c133.6-15.5,244.3-73.6,328.6-178.2C1472.6,732.1,1506.5,611.6,1491.6,478.1z
		 M988.9,955c-0.6,0.2-1.1-0.2-1.3-0.7c-0.4-0.8-0.8-1.6-1.2-2.4c-9.1-21.1-16.1-42.8-19.2-65.7c-0.1-0.4-0.1-0.9-0.2-1.3
		c-0.7-6.7-0.7-6.5-7.5-7.3c-58.1-6.4-111.6-24.6-157.8-61.4c-17.9-14.2-33.6-30.5-46-49.8c-0.5-0.8-1-1.7-1.4-2.6
		c-0.3-0.7,0.1-1.3,1.2-1.2c0.4,0.5,1,1,1.5,1.6c38.5,49,89.9,76.6,149.6,90.4c15.6,3.6,31.4,5.7,47.3,7.4
		c8.1,0.8,16.1,2.6,24.2,3.3c1.8,0.1,1.7,1.4,1.7,2.6c0.3,7,0.6,14.1,1,21.1c1.3,20,2.7,40,7.3,59.6c0.4,1.7,0.9,3.4,1.3,5.1
		C989.6,954.1,989.6,954.8,988.9,955z M1032.4,839c-0.3,2-1.3,3.4-3.2,4.2c-7.5,3.4-15.4,5-24.7,4.9c-8.1,0.1-16.8-1.9-24.9-6.2
		c-0.8-0.5-2.5-0.6-2.1-2c0.4-1.4,1.5-2.8,3.3-2.7c1.9,0.1,3.7,0.5,5.6,0.6c13.8,0.6,27-1.5,38.9-8.8c1.8-1.1,2.9-0.9,4.2,0.5
		C1032,832.2,1033,835.4,1032.4,839z M994.7,814c0.4,2.9-3,4.8-6,4.4c-2.1-0.3-2.5-3.4-5-2.6c0-0.5-0.1-1.1,0-1.6
		c0.7-3.2,3.8-5.5,7.4-5.4c2.2,0.1,4.3,0.7,6.9,2.1C995.7,811.4,994.4,811.6,994.7,814z M1034.3,825.4c-1.5-1.2-1.7-2.2-1.2-3.9
		c0.8-2.7,0.6-5.5,0.1-8.2c-0.4-2-1.4-2.6-3.3-1.3c-1,0.7-2,1.4-3.1,1.9c-5.8,3.1-6.5,2.9-11.1-1.7c-7-7.1-15.4-10.8-25.5-10.6
		c-2.1,0-3.6-0.3-5.3-1.9c-3.3-3.1-7.4-3.8-11.7-2.3c-4.5,1.5-7,4.9-7.5,9.6c-0.2,1.9-1,2.5-2.5,3.2c-9.7,4.1-14.1,11.4-12.9,21.4
		c0.1,1.1,0,2.4,1.2,2.8c1.4,0.5,1.9-0.8,2.5-1.6c0.5-0.6,1-1.2,1.5-1.8c3.3-3.4,3.4-3.4,6.9-0.3c3,2.6,6.4,4.2,10.3,5.4
		c-1.7,1.9-3.3,3.8-3.9,6.2c-0.4,1.8-1.9,1.5-3.2,1.6c-6.9,0.5-13.6-1.4-20.2-2.8c-53.4-11.7-100.6-35.8-141.5-72.1
		c-40-35.5-69-78.6-87.1-129c-9.7-27.1-15.7-55-17.4-83.8c-5.3-90.3,22.5-169.1,83.7-235.6c44-47.8,98.5-78.2,161.8-92.5
		c18.9-4.3,38.2-6.4,57.6-7c50.8-1.6,99.2,8.3,145,30.4c62.2,30,109.7,75.7,142.4,136.5c15.9,29.6,26.5,61.1,32.1,94.3
		c4.8,28.7,5.6,57.6,2.4,86.6c-6.7,60.5-29,114.6-67.2,161.9c-45.9,56.8-104.6,93.5-175.9,109.9c-10.2,2.3-20.4,4.8-31,3.9
		c-2-0.2-3.9-0.4-5.9-0.7c-5.1-0.8-5.6-1.5-5.3-6.5C1039.6,832.6,1038.1,828.5,1034.3,825.4z M1038.1,953.2
		c-0.4,0.8-0.5,2.2-1.9,1.8c-0.7-0.2-0.5-1.1-0.4-2c1.9-6.8,3.2-13.9,4.3-21.1c1.7-11.7,2.8-23.4,3.6-35.1
		c0.7-9.4,1.1-18.9,1.4-28.4c0.1-2.4,0.8-3,3.2-3.3c28-4,56.2-6.2,83.6-13.8c45.1-12.5,85.3-33.4,118.5-66.9
		c6.1-6.1,11.7-12.6,17-19.3c0.7-0.9,1.3-3.4,2.9-2.1c1.3,1-0.4,2.6-1.1,3.7c-8.2,12.8-18,24.2-28.9,34.7
		c-36.4,34.9-79.9,56.4-128.5,68.4c-16.8,4.1-33.9,6.8-51.1,8.5c-1.8,0.2-2.3,0.7-2.5,2.5C1056,906.1,1048.2,930,1038.1,953.2z
		 M1476.3,546.5c-2.8,89.7-28.8,172.1-78.8,246.7c-18.4,27.5-39.6,52.7-63.5,75.5c-53.6,51.2-115.7,87.9-186.6,109.5
		c-28.1,8.6-56.7,14.4-86,17.3c-2.6,0.3-5.3,0.4-7.9,0.7c-1.6,0.2-2.3-0.3-2.6-2c-3-17.5,1.6-32.7,13.7-45.6
		c0.6-0.7,1.3-1.9,2.4-1.3c1.2,0.6,0.7,2,0.5,3c-2.7,13.8,6.6,23.8,15,27.8c10.3,4.9,22.9,2,29.9-6.8c1.1-1.4,1.5-2.6,0.8-4.4
		c-4.4-10.6-4.5-21.6-2.3-32.8c0.2-1,0.2-2.5,1.6-2.6c1.5-0.1,1.5,1.4,1.8,2.4c2.2,7.5,4.7,14.9,9,21.6c3.7,5.8,8.2,10.6,15.3,12.4
		c11.3,2.8,26.1-4.1,31.2-14.4c0.7-1.5,0-2.2-0.7-3.2c-9.5-12.4-13.7-26.7-15.3-41.9c0-0.4-0.1-0.9-0.1-1.3c0-0.8-0.2-1.9,0.9-2.2
		c1-0.3,1.5,0.6,2,1.4c3.1,4.8,6.2,9.6,9.5,14.3c4.1,5.9,9.1,11.1,14.5,15.8c16,13.9,36.3,7.1,45.4-7.3c1.4-2.2,3.6-4.7,3.5-6.9
		c-0.2-2.7-4-2.5-6.2-3.6c-12.4-6.5-18.6-17.1-20.5-30.5c-0.5-3.4-0.9-6.8-0.6-10.2c0.1-1-0.1-2.2,1.2-2.4c1.3-0.2,1.5,1.1,1.8,2
		c1.5,4.9,3.7,9.5,7,13.4c8.5,10,19.8,12.4,32.3,11.3c13.7-1.2,21.7-9.6,26.9-21.4c0.9-2.1,0.7-2.9-1.7-3.5
		c-13.9-3.8-23-12.9-27.9-26.3c-0.4-1.1-1.4-2.4,0.1-3.2c1.2-0.7,1.9,0.7,2.7,1.4c3.8,3.7,7.9,7.1,12.5,9.7
		c12.7,7.1,25,4.9,34.3-6.3c4.7-5.7,7.7-12.3,9.3-19.5c0.5-2.2,0.2-3.2-2.5-3.6c-7.3-0.9-14.1-3.4-20.5-6.9
		c-1.5-0.8-4.4-1.1-3.7-3.3c0.6-1.9,3.1-0.7,4.8-0.6c6.4,0.2,12.7-0.2,18.9-2.3c11.6-4,17-13,19.7-24.2c0.6-2.3,1.8-5.3,0.9-7
		c-1.1-2-4.3-0.2-6.6-0.4c-3.8-0.3-7.7-0.5-11.5-1.2c-0.8-0.1-1.6-0.4-1.7-1.3c-0.1-0.8,0.7-1.3,1.5-1.5c14.6-4,20.7-15.1,23.7-28.6
		c2.8-12.8,2.2-25.6,0.1-39.2c-5,6.6-9.4,12.8-14.1,18.7c-4.4,5.6-9,11.1-13.6,16.6c-0.7,0.8-1.4,2.1-2.6,1.5
		c-1.2-0.6-0.6-1.9-0.6-3c0.7-10.6,2-21.3,1.1-32c-0.1-1.5,0.4-2.8,1.2-4c20.1-32.1,34.3-66.7,42.5-103.7c6.1-27.3,8.7-55,7.6-83
		c-3-81.6-31.9-152.9-86.8-213.2c-48-52.7-107.3-86.4-177.1-101.3c-24-5.1-48.3-7.6-72.9-7.1c-86.1,2-161.1,31.9-223.9,90.9
		c-50.1,47-82.1,104.6-96.8,171.7c-4.5,20.6-6.7,41.5-7.2,62.6c-1.2,55,10.6,107.1,35.2,156.3c4.5,9,9.4,17.7,14.7,26.2
		c1,1.7,1.5,3.3,1.5,5.3c-0.3,10-0.1,20.1,1.2,30c0,0.3,0.1,0.7,0.1,1c-0.1,1.1,0.7,2.7-0.6,3.3c-1.4,0.7-2.1-0.9-2.8-1.8
		c-8.5-9.7-16.4-19.9-23.9-30.4c-1-1.4-2-2.8-3.4-4.7c-2,10.7-2.2,20.8-1.3,30.9c0.5,6.6,2,13,4.7,19.1c4,8.8,10.2,15.1,19.7,17.8
		c1,0.3,2.2,0.5,2.1,1.7c-0.1,1.2-1.4,1.2-2.3,1.4c-5.2,0.8-10.5,1.4-15.8,0.8c-1.7-0.2-2.1,0.2-1.9,1.8c0.9,6.5,2.6,12.8,6,18.4
		c5.5,8.9,14.2,12.5,24.1,13.7c4.1,0.5,8.1,0.2,12.2,0c0.9,0,2-0.2,2.3,0.8c0.5,1.3-0.7,1.7-1.6,2.2c-7.4,4.1-15.1,7.2-23.5,8.2
		c-2.2,0.3-2.4,0.9-2,2.8c2,9.5,6,17.9,13.6,24.3c8.1,6.9,17.2,7.8,26.9,3.7c6.1-2.6,11.1-6.8,15.8-11.3c0.7-0.7,1.4-2.1,2.7-1.3
		c1.2,0.7,0.5,2,0.1,3c-5.1,13.2-14,22.5-27.9,26.4c-2.4,0.7-2.6,1.5-1.7,3.6c6.4,15.5,16.8,22,34.9,21.6
		c14.2-0.3,25.6-8.9,30.7-23.1c0.5-1.3,0.5-3.8,2.2-3.5c1.8,0.3,1.4,2.7,1.3,4.3c-0.3,5.6-0.8,11.2-2.6,16.6
		c-3.8,11.5-11.3,19.5-22.7,23.7c-2,0.7-2.5,1.4-1.6,3.5c5.8,13.1,17.2,20.5,31.3,20.2c6.6-0.1,12-3.4,16.9-7.4
		c9.8-7.9,16.7-18.1,23.3-28.6c0.3-0.5,0.6-1,0.8-1.4c0.5-0.9,1-2,2.1-1.7c1.4,0.4,1,1.8,0.9,2.8c-1.6,15.5-5.7,30-15.3,42.6
		c-0.8,1.1-1.4,1.9-0.6,3.5c5.4,10.5,20.2,17.2,31.6,14.1c6.6-1.8,11-6.3,14.5-11.8c4.3-6.6,7-14,9.1-21.5c0.3-1.1,0.4-2.8,1.8-2.8
		c1.6,0,1.4,1.7,1.7,2.8c2.3,10.9,2.1,21.7-2.1,32.1c-0.9,2.2-0.4,3.7,1,5.3c10.2,12.2,29.1,11.4,39.5-1.6
		c4.7-5.9,6.1-12.5,5.1-19.9c-0.1-1-0.9-2.3,0.4-3c1.3-0.6,2,0.7,2.7,1.4c11.9,12.9,16.3,28.1,13.5,45.4c-0.4,2.2-1.6,2.2-3.3,2
		c-14.5-1.2-28.9-3.2-43.2-5.8c-39.8-7.3-78-19.7-114.6-37.2c-39.3-18.8-75.3-42.6-107.9-71.5c-44.7-39.5-80.4-86-107.3-139.2
		c-19.7-39-33.4-79.9-41.4-122.9c-6.3-33.7-9-67.7-7.5-102c4.6-108.1,41.8-203.7,112.4-285.8c57-66.3,127.6-112.6,210.9-139.3
		c30.2-9.7,61.1-16,92.6-19.1c20-2,40-2.9,60.1-2.3c43.9,1.3,86.9,8.4,128.8,21.8c63.4,20.4,119.9,52.8,169.3,97.6
		c63.6,57.6,108.1,127.5,133.3,209.6c8.8,28.7,14.6,58,17.5,87.9C1475.9,507.5,1476.9,527,1476.3,546.5z"/>
	<path class="st0" d="M807.5,650.9c0.1,1.6,0.1,3.1-0.2,4.8c-0.8,4.7-1.5,9.3-2.1,14c-0.2,1.1-0.2,2.6,1.2,3.2
		c1.1,0.5,2.1-0.5,2.9-1.2c2.8-2.4,4.9-5.4,7.1-8.3c6.4-8.7,12.6-17.5,19.7-25.7c6.8-7.8,14.4-14.3,24-18.7
		c10.4-4.7,19.5-11.4,27.5-19.7c4.1-4.2,8-8.5,12.2-12.6c8.2-8,17.5-9.7,27.9-5.2c3.4,1.5,6.7,3.5,9.5,5.9c6.4,5.5,13.8,8.5,22,9.8
		c5.5,0.9,11.1,1.8,16,4.8c10.4,6.5,21.8,10.9,33.2,15.2c0.6,0.2,1.2,0.6,1.8-0.1c-0.1-1.5-0.9-2.7-1.7-3.9
		c-2.7-4.4-5.8-8.5-9.6-12.1c-4-3.7-7.7-7.6-9.4-13c-1.1-3.4-0.7-3.9,2.8-3.5c5,0.6,10,1.4,15.1,1.8c10.8,0.8,21.3-1.7,31.6-4.4
		c12.4-3.3,24.7-4,37.1-0.1c11,3.5,20.4,9.7,29.4,16.8c1.2,0.9,2.2,2,3.9,2.2c0.3-1.6-0.5-2.8-1.1-3.9c-2.2-4.4-4.8-8.7-7.9-12.5
		c-6.7-8.4-12.8-17.1-17.7-26.6c-0.4-0.8-0.9-1.5-1.5-2.2c-3.2-3.8-4.5-8.3-4-13.2c0.7-7.1-1.5-13.4-5.3-19.3
		c-6-9.2-11.7-18.6-17.6-27.9c-2.1-3.4-3.3-6.9-2.9-11c0.9-9.1,2.4-18.1,2.3-27.3c-0.1-7.8,3.9-14.5,8-21c5-7.9,11.4-14.6,17.2-21.7
		c3.1-3.8,5.2-8.1,6.1-13c0.8-4.6,2.3-8.9,4-13.2c1.5-3.9,3.9-7,7.9-8.9c3.7-1.8,6.8-4.4,9.8-7.2c11-10.2,18.6-22.4,23.3-36.6
		c1-2.9,1.9-7,5.4-7.2c3.7-0.3,5,3.8,6.5,6.6c3.4,6.3,5.9,13,8.4,19.7c2.7,7,6.8,13,12.5,17.9c6.6,5.7,12.9,11.7,18.6,18.3
		c3.5,4.1,5.9,8.7,6.3,14.2c0.3,5.4,2.8,9.6,6.7,13.2c14.1,13.2,26.4,28.1,37.6,43.9c5.6,8,12,15.3,19.9,21.1
		c7.5,5.5,12.7,12.5,16.7,20.9c4.8,10.1,8.9,20.7,15.6,29.7c7.5,10.1,16.2,19.3,22.7,30.4c1.7-12.3,2.5-24.5,2.4-36.7
		c0-1.3,0.2-2.6-0.9-3.7c-2.7-2.8-4.3-6.4-6.3-9.6c-5.1-8.2-9.6-16.8-17.1-23.4c-5.2-4.6-10.2-9.5-15.4-14
		c-10.8-9.2-20.5-19.3-26.2-32.7c-1.9-4.5-5.2-8.2-8.6-11.6c-3.4-3.4-6.6-7.1-9-11.3c-4-6.8-8.2-13.6-13.5-19.5
		c-2.7-3.1-4.9-6.6-6-10.6c-2.8-10-8-19-11.7-28.6c-3.3-8.8-9-14.7-16.9-18.9c-2-1.1-3.9-2.4-6-3.5c-8.4-4.6-13.4-11.5-15-20.9
		c-1.9-11.5-8.4-18.7-19.7-21.9c-4.6-1.3-9.3-2.6-13.5-5.1c-5.2-3.1-7.5-2.9-11.5,1.4c-8.9,9.5-18,18.8-26.7,28.4
		c-13.1,14.6-27.2,28.3-37.6,45.1c-7.1,11.4-16.6,20.4-28,27.6c-10.9,6.8-21.6,14-31.6,22.2c-3.7,3-6.7,6.3-7.7,11.2
		c-0.5,2.6-2.2,4.8-4,6.7c-2.9,3-6.5,4.9-10,7c-8.9,5.3-15.5,12.5-19.2,22.3c-3.3,8.7-7.3,17-13,24.4c-10,12.9-21.5,24.5-33,36.1
		c-1.2,1.2-1.9,0.9-3.1,0.2c-3.1-1.8-4.5-5.1-7-7.3c-11.7-10.9-22.5-22.7-36.2-31.2c-7.6-4.7-13.5-10.8-18.4-18.2
		c-6.2-9.4-11.2-19.4-15.6-29.7c-4-9.3-9.6-17.5-16-25.2c-1.3-1.5-2.8-2.8-4.5-3.9c-2.1-1.4-4.2-1.4-6.2,0.1c-1.4,1-2.7,2.2-3.9,3.5
		c-3.3,3.7-6.3,7.7-9.9,11.1c-4.3,3.9-7.4,8.4-8.8,14c-1.6,6.4-5.6,10.9-10.4,15.2c-15.6,14-30.9,28.2-45.4,43.4
		c-1.8,1.9-2.6,3.8-2.8,6.4c-1.5,19.7-1.5,39.4,0.7,59c4.2,37.9,15.3,73.7,33.3,107.4c5.9,11.1,12.4,21.7,19.9,32.1
		c13.3-17.1,26.5-34.1,39.7-51C806.9,650.6,807.2,650.8,807.5,650.9z M789.8,617.4c-1.1,1.6-2.4,2.9-4.1,3.7
		c-6.4,3.2-13.3,4.3-20.4,6c0.8-6.4,2.1-12.3,4-18c1.1-3.2,2.8-5.9,5.2-8.3c6.4-6.5,6.2-12.7-0.9-18.2c-4.5-3.5-8-7.8-11.5-12.2
		c-3-3.9-3.7-7.9-1.8-12.6c4.2-10.3,8.2-20.6,11.5-31.2c3.1-9.6,3.3-19.5,4.5-29.3c0.6-5,2-9.8,4.8-13.9
		c7.3-10.3,10.5-22.1,13.2-34.2c1.1-4.9,2.1-9.9,3.4-14.8c0.3-1.4,0.3-3.7,2-3.7c1.4,0.1,1.5,2.4,1.9,3.9c1.2,4.3,1.9,8.7,1.8,13
		c-0.3,24.6,10.3,44.5,26,62.5c9.1,10.5,19,20.2,28.4,30.5c4.3,4.7,4.3,5.7,0.2,10.6c-5.9,7.1-13.3,12.5-20.5,18.1
		c-11.3,8.6-22.9,16.9-32.7,27.3C798.8,602.8,794.8,610.5,789.8,617.4z"/>
	<path class="st0" d="M1065.2,762.5c6.7-1.7,10.3-5.9,11.1-12.7c0.3-2.4,0.5-4.8,0.6-7.2c0.3-9.3,3.6-17.3,10.2-24
		c4.4-4.5,9.1-8.7,13.9-12.7c8.9-7.2,16.6-15.8,26.7-21.5c7.8-4.4,15.5-8.8,23.3-13.2c3.4-1.9,6.8-3.5,10.5-4.7
		c5.9-1.8,8.9-0.8,11.1,4.8c5.5,14.4,14.4,26.9,21.1,40.7c0.4,0.8,0.7,2.2,1.9,2c0.8-0.1,1.1-1.3,1.3-2.1c0.1-0.5,0.4-1,0.5-1.6
		c1.7-9.7,2.3-19.5-0.2-29.2c-0.8-2.9-0.9-5.9,0.3-8.8c2.6-6.1,4.9-12.3,8.1-18c3.1-5.4,4.3-10.9,4.3-17c0-6.1-0.6-12.1-0.1-18.2
		c0.3-3.2,1.7-5.4,4.7-6.6c5.4-2.1,9.7-5.6,13.5-9.8c4.7-5.2,10.1-9.4,16.7-12.1c3.7-1.5,7.3-3.3,10.3-5.8c3.4-2.8,6.6-2.4,10-0.3
		c1.3,0.8,2.6,1.7,3.7,2.7c8,6.7,14.4,14.9,21.1,22.8c1.9,2.3,3.8,4.6,6,7.2c2.7-8.5,4.7-16.6,6.6-24.7c0.3-1.1,0.1-1.8-0.8-2.5
		c-11.6-9.1-22.6-19.1-35.3-26.7c-11.6-7-15.7-6.6-25.3,2.7c-6,5.8-12.6,10-20.5,12.7c-20.9,7.3-41.4,15.3-60.3,27
		c-3.6,2.2-7.4,4.4-11.4,6c-10.8,4.2-17.8,12.1-22.7,22.3c-6.5,13.6-16,25.1-27.5,34.7c-15.1,12.7-30.7,24.8-45.6,37.7
		c-14.8,12.9-31,23.5-48.8,31.7c-8.1,3.7-16.2,7.6-23.6,12.5c-5.5,3.6-11.4,5.5-17.8,6.6c-6.2,1.1-12.5,1.4-18.8,1.4
		c-1.8,0-3-0.5-4.3-1.8c-11.7-12.9-23.9-25.2-35-38.7c-10-12.2-23.3-20.7-38-26.8c-6.8-2.8-13.5-2.4-20.1,0.8
		c-6.3,3-12.3,6.5-17.6,10.9c-5.8,4.8-12.3,8-19.3,10.6c-5.5,2.1-11.2,4-16.8,6c-2,0.7-3.8,1.6-5.6,2.8c-2,1.4-2.4,2.4-0.5,4.4
		c5.4,5.8,10.8,11.6,16.5,17.1c10.1,9.7,20.8,18.7,32.3,27c0.5-1.4,1-2.6,1.4-3.8c4-12.4,8-24.9,12.1-37.3
		c2.2-6.6,4.4-13.1,7.9-19.2c2.4-4.1,3.8-4.6,8.4-3.3c5.4,1.5,9.6,4.8,13.4,8.8c8.6,9,14.8,19.7,20.3,30.7
		c4.1,8.2,9.5,14.9,17.6,19.5c8,4.6,13.5,11.4,16.5,20.3c1.8,5.3,4.6,10.2,8.4,14.5c0.5,0.6,1,2.1,1.9,1c2.5-2.7,6.3-4,8.2-7.5
		c7.9-14.8,25.1-19.8,39.6-11.8c1.2,0.7,2.4,1,3.7,1.1c8,0.7,15.6,2.9,22.3,7.3c2.4,1.6,3.3,1.1,4.8-1c6-8.6,13.1-15.9,22.8-20.5
		C1051.6,766.7,1058.3,764.2,1065.2,762.5z"/>
	<path class="st0" d="M757,387.7c1,0.2,2,0.1,3,0.1c40.1,0,80.2,0,120.4,0c40.1,0,80.2,0,120.4,0c1.1,0,2.2,0.1,3.3-0.1
		c1.7-0.3,2.7-1.4,2.8-3.2c0.1-1.9-0.7-3.3-2.5-3.7c-1-0.3-2.2-0.3-3.3-0.3c-80.3,0-160.7,0-241,0c-1.1,0-2.2,0-3.3,0.3
		c-1.9,0.5-2.7,1.9-2.5,3.7C754.2,386.2,755.3,387.3,757,387.7z"/>
	<path class="st0" d="M768.2,370.1c0.9,0.2,2,0.1,3,0.1c83.9,0,167.8,0,251.7,0c1,0,2,0.1,3-0.1c1.9-0.5,3-1.8,2.8-3.9
		c-0.1-1.9-1.2-3-3.1-3.2c-0.9-0.1-1.8,0-2.6,0c-42,0-84,0-126,0c-41.9,0-83.8,0-125.7,0c-0.9,0-1.8-0.1-2.6,0
		c-2.1,0.2-3.2,1.4-3.3,3.4C765.1,368.4,766.2,369.7,768.2,370.1z"/>
	<path class="st0" d="M978.5,405.3c1.9-0.3,2.9-1.6,3-3.4c0.1-1.9-0.9-3.2-2.7-3.7c-0.9-0.2-2-0.1-3-0.1c-26,0-52,0-78,0
		c-25.9,0-51.8,0-77.7,0c-0.9,0-1.8-0.1-2.6,0c-2,0.3-3.2,1.6-3.2,3.6c0,2,1.1,3.3,3.2,3.6c0.9,0.1,1.8,0.1,2.6,0.1
		c51.8,0,103.6,0,155.4,0C976.5,405.4,977.5,405.4,978.5,405.3z"/>
	<path class="st0" d="M963.7,423c2-0.4,3-1.7,2.9-3.8c-0.1-1.9-1.1-3.1-3-3.4c-1-0.1-2-0.1-3-0.1c-21.5,0-43,0-64.5,0
		c-21.8,0-43.7,0-65.5,0c-1,0-2-0.1-3,0.1c-1.9,0.3-2.9,1.5-3,3.4c-0.1,1.9,1,3.2,2.7,3.6c0.9,0.3,2,0.1,3,0.1
		c43.5,0,87.1,0,130.6,0C962,423,962.9,423.1,963.7,423z"/>
	<path class="st0" d="M962.7,299.5c1.1,0.2,2.2,0.2,3.3,0.2c19.4,0,38.8,0,58.2,0c19.3,0,38.6,0,57.9,0c1,0,2,0.1,3-0.1
		c1.9-0.4,2.8-1.6,2.8-3.5c0-1.9-1-3.1-2.8-3.5c-0.7-0.2-1.5-0.1-2.3-0.1c-39.1,0-78.2,0-117.4,0c-0.8,0-1.6,0-2.3,0.1
		c-1.9,0.4-2.8,1.7-2.8,3.5C960.1,297.7,961,299.1,962.7,299.5z"/>
	<path class="st0" d="M943.5,440.5c1.9-0.4,2.9-1.7,2.9-3.5c0-2-1.1-3.3-3.2-3.6c-0.9-0.1-1.8,0-2.6,0c-16.9,0-33.7,0-50.6,0
		c-17,0-33.9,0-50.9,0c-0.9,0-1.8-0.1-2.6,0c-1.9,0.2-3,1.4-3.1,3.2c-0.2,2,0.8,3.4,2.8,3.8c1.1,0.2,2.2,0.2,3.3,0.2
		c33.6,0,67.2,0,100.8,0C941.3,440.7,942.4,440.7,943.5,440.5z"/>
	<path class="st0" d="M784.4,352.5c17.7-0.1,35.5,0,53.2,0c6.3,0,12.6,0,18.8,0c11.6,0,23.1,0,34.7,0c2.6,0,4.4-0.7,4.4-3.6
		c0-2.9-1.9-3.7-4.4-3.7c-0.2,0-0.4,0-0.7,0c-35.4,0-70.7,0-106.1,0c-2.7,0-5.1,0.7-5.1,3.7C779.3,352.1,781.7,352.5,784.4,352.5z"
		/>
	<path class="st0" d="M1055.8,331.3c0-3.2-2.2-3.6-4.8-3.6c-13.5,0-27.1,0-40.6,0c-13.5,0-27.1,0-40.6,0c-2.6,0-4.4,0.7-4.6,3.5
		c-0.2,2.3,1.7,3.8,4.7,3.8c27.1,0,54.2,0,81.3,0C1053.6,335,1055.8,334.4,1055.8,331.3z"/>
	<path class="st0" d="M816.9,317.2c1.1,0.2,2.2,0.1,3.3,0.1c12.9,0,25.8,0,38.7,0c12.9,0,25.8,0,38.7,0c1,0,2,0,3-0.1
		c2.1-0.2,3.1-1.5,3.1-3.6c0.1-2.2-1.1-3.2-3.1-3.7c-0.6-0.1-1.3-0.1-2-0.1c-26.6,0-53.1,0-79.7,0c-0.9,0-1.8,0-2.6,0.3
		c-1.8,0.6-2.6,2-2.4,3.9C814.2,315.8,815.1,317,816.9,317.2z"/>
	<path class="st0" d="M934.4,454.6c0-2.9-2.1-3.7-4.8-3.7c-26.6,0-53.1,0-79.7,0c-2.6,0-4.7,0.5-4.9,3.5c-0.2,2.5,1.5,3.8,5,3.8
		c13.2,0,26.4,0,39.7,0c13.3,0,26.7,0,40,0C932.3,458.2,934.4,457.5,934.4,454.6z"/>
	<path class="st0" d="M921.8,476c2.6,0,4.4-1,4.5-3.7c0-2.8-2-3.7-4.4-3.8c-0.6,0-1.1,0-1.7,0c-17.7,0-35.5,0-53.2,0
		c-1.1,0-2.2,0.1-3.3,0.2c-1.8,0.3-2.7,1.4-2.8,3.2c-0.1,1.8,0.6,3.3,2.5,3.8c1,0.3,2.2,0.3,3.3,0.3c8.9,0,17.9,0,26.8,0
		c7.8,0,15.7,0,23.5,0C918.5,476,920.1,476,921.8,476z"/>
	<path class="st0" d="M985.4,345.2c-3.1,0-4.8,1.5-4.6,3.9c0.2,2.9,2.2,3.4,4.7,3.4c8.5-0.1,16.9,0,25.4,0c8.6,0,17.2,0,25.7,0
		c2.6,0,4.4-0.9,4.4-3.6c0-2.7-2-3.7-4.5-3.7C1019.5,345.2,1002.5,345.1,985.4,345.2z"/>
	<path class="st0" d="M1217.1,384.1c0,2.9,1.9,3.6,4.4,3.6c6.7,0,13.4,0,20.2,0c6.8,0,13.7,0,20.5,0c2.4,0,4.2-0.8,4.3-3.5
		c0.1-2.8-1.7-3.8-4.3-3.8c-13.6,0-27.1,0-40.7,0C1219,380.4,1217,381.2,1217.1,384.1z"/>
	<path class="st0" d="M1071.5,313.5c-0.1-2.7-2.1-3.5-4.6-3.5c-13.2,0-26.4,0-39.6,0c-2.6,0-4.7,0.7-4.7,3.7c0,3.1,2.1,3.7,4.7,3.7
		c6.5,0,13,0,19.5,0c6.7,0,13.4,0,20.2,0C1069.6,317.4,1071.6,316.5,1071.5,313.5z"/>
	<path class="st0" d="M1234,398.1c-2.7,0-4.8,0.7-4.8,3.7c0,2.9,2.1,3.7,4.8,3.7c6.2-0.1,12.3,0,18.5,0c6.4,0,12.8,0,19.2,0
		c2.5,0,4.5-0.7,4.6-3.5c0.1-3-1.9-3.8-4.6-3.8C1259.1,398.1,1246.6,398.1,1234,398.1z"/>
	<path class="st0" d="M1215.2,362.9c-2.5,0-4.2,0.8-4.3,3.4c-0.1,2.8,1.6,3.9,4.2,3.9c11.8,0,23.6,0,35.4,0c2.6,0,4.4-1,4.3-3.8
		c-0.1-2.6-1.8-3.5-4.3-3.5c-6,0.1-11.9,0-17.9,0C1226.9,362.9,1221,363,1215.2,362.9z"/>
	<path class="st0" d="M1263.5,415.7c-5.8,0-11.7,0-17.5,0c-2.6,0-4.4,0.9-4.4,3.7c0,2.8,1.9,3.7,4.4,3.7c11.4,0,22.9,0,34.3,0
		c2.5,0,4.4-0.9,4.4-3.7c0-2.9-1.9-3.6-4.4-3.6C1274.7,415.8,1269.1,415.7,1263.5,415.7z"/>
	<path class="st0" d="M1258.4,433.4c-2.6,0-4.5,0.9-4.4,3.7c0,2.7,2,3.7,4.5,3.7c4.7,0,9.5,0,14.2,0c5,0,9.9,0,14.9,0
		c2.6,0,4.4-1.2,4.3-3.9c-0.1-2.6-1.9-3.4-4.4-3.4C1277.8,433.4,1268.1,433.4,1258.4,433.4z"/>
	<path class="st0" d="M1189.5,327.7c-2.5,0-4.1,1-4.1,3.6c0,2.6,1.7,3.7,4.1,3.7c10.6,0,21.1,0,31.7,0c2.6,0,4.4-1.2,4.3-3.9
		c-0.1-2.5-1.8-3.5-4.3-3.4c-5.2,0.1-10.3,0-15.5,0C1200.3,327.7,1194.9,327.8,1189.5,327.7z"/>
	<path class="st0" d="M1206.5,345.2c-2.3,0-3.7,1.4-3.6,3.9c0.1,2.4,1.6,3.4,4,3.4c5.1-0.1,10.1,0,15.2,0s10.1,0,15.2,0
		c2.4,0,3.8-1.1,3.9-3.4c0.1-2.4-1.4-3.8-3.6-3.8C1227.3,345.1,1216.9,345.1,1206.5,345.2z"/>
	<path class="st0" d="M1168.6,313.5c-0.1,2.7,1.6,3.9,4.2,3.9c9.8,0,19.6,0,29.4,0c2.5,0,4.5-0.8,4.4-3.7c0-2.8-1.8-3.7-4.4-3.7
		c-4.8,0-9.7,0-14.5,0c-5,0-9.9,0-14.9,0C1170.4,310,1168.6,310.9,1168.6,313.5z"/>
	<path class="st0" d="M748.6,405.4c8.9,0,17.8,0,26.7,0c2.6,0,4.4-1.1,4.3-3.8c-0.1-2.5-1.8-3.5-4.3-3.5c-4.5,0-9,0-13.5,0
		c-4.4,0-8.8,0.1-13.2,0c-2.6,0-4.5,1-4.5,3.6C744.2,404.4,746,405.4,748.6,405.4z"/>
	<path class="st0" d="M799.5,335c8.6,0,17.1,0,25.7,0c2.4,0,4.1-1.2,4.1-3.7c0-2.5-1.6-3.6-4.1-3.6c-4.3,0.1-8.6,0-12.9,0
		s-8.6,0.1-12.9,0c-2.5-0.1-4.2,1-4.3,3.5C795.1,333.8,796.9,335,799.5,335z"/>
	<path class="st0" d="M1268.9,450.9c-2.5,0-4.1,1.1-4,3.7c0,2.6,1.7,3.6,4.2,3.6c4.1,0,8.2,0,12.2,0c4,0,7.9-0.1,11.9,0
		c2.6,0,4.4-0.9,4.4-3.7c0-2.6-1.7-3.6-4.1-3.6C1285.2,450.9,1277,450.9,1268.9,450.9z"/>
	<path class="st0" d="M886.6,486.1c-2.4,0-4.1,1.2-4.1,3.7c0,2.5,1.7,3.6,4.2,3.5c3.6-0.1,7.3,0,10.9,0c3.6,0,7.3-0.1,10.9,0
		c2.6,0.1,4.4-0.8,4.4-3.7c0-2.6-1.7-3.6-4.1-3.6C901.3,486.1,893.9,486.1,886.6,486.1z"/>
	<path class="st0" d="M732.5,440.6c6.8,0.1,13.6,0.1,20.5,0c2.2,0,3.8-1.2,3.7-3.7c-0.1-2.4-1.4-3.6-3.8-3.6c-3.4,0-6.8,0-10.2,0
		c-3.3,0-6.6,0-9.9,0c-2.3,0-3.9,0.9-4.1,3.3C728.6,439.3,730.1,440.6,732.5,440.6z"/>
	<path class="st0" d="M840.2,299.7c6.7,0.1,13.4,0.1,20.1,0c2.3,0,3.8-1.3,3.7-3.7c0-2.4-1.5-3.5-3.9-3.5c-3.3,0-6.6,0-9.9,0
		c-3.3,0-6.6,0-9.9,0c-2.3,0-3.8,1.1-3.8,3.6C836.5,298.5,837.9,299.7,840.2,299.7z"/>
	<path class="st0" d="M739.9,423c3.4,0,6.8,0,10.2,0c3.4,0,6.8,0,10.2,0c2.4,0,4.1-1,4.2-3.6c0-2.5-1.6-3.7-4.1-3.7
		c-6.8,0-13.6,0-20.4,0c-2.5,0-4.1,1.1-4.1,3.6C735.8,421.8,737.4,423,739.9,423z"/>
	<path class="st0" d="M1164.3,299.7c5.3,0,10.6,0,15.9,0c2.5,0,4-1.2,3.9-3.8c-0.1-2.4-1.6-3.5-3.9-3.5c-2.6,0-5.3,0-7.9,0
		s-5.3,0-7.9,0c-2.4,0-3.8,1.4-3.8,3.6C1160.5,298.3,1161.9,299.7,1164.3,299.7z"/>
</g>
<path class="st0" d="M761.1,257.4c2.9-2.8,2.9-2.8,6.5,0.4c3.6,3.2,3.6,3.2,0.5,6.7c-5.3,6.1-10.6,12.1-15.7,18.3
	c-1.3,1.5-2.2,1.9-3.6,0.3c-1.1-1.2-2.5-2.2-3.7-3.3c-1.8-1.6-4.6-3-5.1-4.9c-0.5-2,2.8-3.5,4-5.7c-8.3-7.2-16.7-14.4-25.5-22.1
	c1.6,10.9,3.1,21.2,4.7,31.4c0.5,3.4-1,5.1-4.4,5c-10.3-0.3-20.6-0.7-31.7-1.1c5.4,4.7,10.2,8.9,15.1,13.1c3.1,2.7,6.3,5.2,9.2,8
	c1.5,1.4,2.2,1,3.3-0.3c3.1-3.6,3.1-3.5,6.8-0.3c2.1,1.8,4.1,3.7,6.3,5.4c1.2,0.9,1.2,1.5,0.3,2.6c-6.2,7.1-12.3,14.2-18.4,21.2
	c-0.4,0.5-1,1.6-1.8,0.9c-2.2-1.8-4.4-3.7-6.5-5.6c-0.6-0.5,0.1-1,0.5-1.3c2.8-2.1,1.2-3.5-0.7-4.9c-0.4-0.2-0.6-0.6-1.1-1
	c3-2.1,1.8-3.5-0.4-5.4c-9.3-7.9-18.5-15.9-27.8-24c-1.3-1.1-2.3-2.5-3.8-0.2c-1.2,1.9-2.1,0-2.8-0.7c-1.6-1.6-2.8-2.2-4.2,0.2
	c-0.7,1.3-1.4,1.1-2.5,0.2c-6.1-4.9-6.1-4.9-1.1-10.7c3.7-4.3,7.5-8.6,11.2-13c1.2-1.4,2.4-2,4.2-1.8c10,0.8,20,1.3,30,2.1
	c2.5,0.2,3.1-0.2,2.5-2.9c-2.3-9.8-4.2-19.8-6.5-29.7c-0.3-1.5-0.1-2.4,0.9-3.5c4.9-5.5,9.8-11.1,14.5-16.7c1.3-1.5,2.1-1.5,3.3-0.2
	c0.8,0.9,1.8,1.6,2.7,2.4c1.7,1.4,3.7,2.6,0.7,4.8c-1.7,1.3,0.3,2,1,2.7c1.1,1.1,3,2,0.8,3.8c-1,0.9,0.1,1.3,0.6,1.8
	c10.1,8.8,20.3,17.6,30.4,26.4c0.4,0.3,1,1,1.4,0.5C757.9,252.5,758.9,257.3,761.1,257.4z"/>
<path class="st0" d="M1218,198.1c4.2-7.8,8.1-15.2,12.1-22.5c0.8-1.5,0.2-2-1-2.7c-5.4-3.1-5.4-3.1-2.4-8.4c1.4-2.5,2.1-6.6,4.6-7.1
	c2.2-0.5,5,2.2,7.5,3.5c6,3.2,12,6.5,18,9.6c1.7,0.9,2.5,1.6,1.1,3.4c-0.8,1.1-1.6,2.4-2.1,3.7c-0.8,2.1-1.8,2.8-3.8,1.3
	c-1.8-1.4-2.1,0.3-2.8,1.3c-0.8,1.3-1,3.3-3.4,1.9c-1.2-0.7-1.3,1.1-1.6,1.8c-8.3,15.4-16.7,30.7-24.8,46.2c-1.5,2.8-2.4,2.5-5,1.5
	c-5-2.1-7.1-5.4-8.2-10.7c-3.3-15.6-7.2-31.1-10.9-46.6c-0.2-0.9-0.5-1.7-0.9-3c-4.4,8.2-8.6,15.9-12.8,23.7
	c-0.8,1.5,0.3,1.8,1.2,2.4c5.1,3,5.2,3,2.2,8.3c-1.4,2.5-2,6.6-4.6,7.1c-2.2,0.4-5-2.3-7.5-3.7c-6-3.2-12-6.5-18-9.6
	c-1.7-0.9-2-1.6-1-3.2c1-1.5,1.8-3,2.5-4.6c0.7-1.4,1.3-2.2,2.9-1c1.6,1.2,2-0.4,2.5-1.3c0.7-1.4,1.3-3,3.3-1.5
	c1.1,0.9,1.5-0.1,2-0.9c6.3-11.8,12.6-23.6,18.9-35.5c0.3-0.6,0.9-1.3,0-1.6c-3-0.9-1.9-2.6-0.8-4.2c1-1.5,0.9-2.6-1-3.2
	c-2.1-0.6-1.6-1.8-0.8-3.2c3.3-6.3,3.3-6.4,9.6-3c4,2.1,9,3.5,11.5,6.7c2.4,3.2,2.3,8.3,3.3,12.6c3.1,13.5,6.2,27,9.3,40.5
	C1217.4,196.7,1217.6,197,1218,198.1z"/>
<path class="st0" d="M839.7,167.3c3.6,8.6,7,16.5,10.2,24.4c0.7,1.8,1.4,1.9,3.1,1.2c5.3-2.3,5.4-2.2,7.5,3.1c1.1,2.8,4,6,2.9,8.3
	c-1,2-5,2.6-7.8,3.7c-6.1,2.6-12.2,5-18.2,7.7c-2.2,1-3.1,0.5-3.7-1.6c-0.4-1.4-1-2.7-1.6-3.9c-0.7-1.5-1.3-2.8,1-3.5
	c2.1-0.6,0.6-2,0.3-2.9c-0.6-1.5-1.2-2.7,1.1-3.2c1.2-0.3,1-1.1,0.6-2.1c-5.2-12.2-10.3-24.5-15.4-36.7c-0.3-0.7-0.6-1.9-1.5-1.3
	c-2.7,1.6-3.3-0.3-3.8-2.1c-0.5-2-1.6-2.2-3-1.2c-1.7,1.1-2.4,0.3-3-1.3c-2.8-6.6-2.9-6.6,4-9.5c4-1.7,8.1-4.7,12.2-4.7
	c3.9,0.1,7.7,3.3,11.6,5.2c12,5.9,24.1,11.7,36.1,17.6c0.9,0.5,1.8,1.3,3.3,1.1c-3.4-8-6.7-15.8-10-23.7c-0.6-1.5-1.5-0.7-2.4-0.4
	c-1.9,0.6-4.1,2.7-5.6,1.8c-1.5-0.9-1.9-3.6-2.7-5.5c-0.3-0.7-0.6-1.4-0.9-2.1c-2.4-5.9-2.4-5.9,3.2-8.3c7.1-3,14.2-5.8,21.3-8.9
	c2-0.9,3-0.6,3.5,1.5c0.3,1.2,0.8,2.3,1.4,3.3c1.2,2,1.3,3.6-1.5,4.2c-1.7,0.4-1.1,1.4-0.7,2.4c0.5,1.5,2.5,3.1-0.5,4.4
	c-1,0.4,0.2,1.8,0.5,2.6c6.7,16.1,13.4,32.2,20.3,48.3c1,2.3,0.7,3-1.6,4.3c-5,2.8-9.2,2.3-14.3-0.3
	C870.6,181.9,855.4,174.9,839.7,167.3z"/>
<path class="st0" d="M1356.5,316.8c-7.5,4.4-14.9,8.9-22.4,13.3c-1.4,0.8-1.4,1.5-0.6,2.8c2.9,5.2,2.9,5.3-2.3,8.3
	c-2.4,1.4-5.1,4.2-7.3,3.9c-2.3-0.4-3.2-4.4-4.6-6.8c-3.5-5.6-6.6-11.4-10.2-16.9c-1.5-2.4-1.1-3.6,1.3-4.6c1.2-0.5,2.3-1.3,3.4-2
	c1.4-0.9,2.5-1.4,3.3,0.6c0.9,2,1.9,0.4,2.8-0.1c1.3-0.7,2.6-2,3.5,0.5c0.4,1.2,1.2,0.8,2.1,0.3c11.4-6.8,22.9-13.6,34.3-20.4
	c0.7-0.4,1.8-0.9,1-1.9c-1.7-2.1-0.2-2.8,1.3-3.5c1.8-0.8,2.7-1.8,1.1-3.6c-1.1-1.2-0.7-1.8,0.6-2.7c6.5-4.2,6.4-4.3,10.3,2.2
	c1,1.6,1.7,3.4,2.9,4.8c4,4.4,3.5,8.9,1.6,14.2c-5.2,14.8-9.9,29.8-14.8,44.8c-0.1,0.4-0.2,0.8-0.4,1.8c7.8-4.6,15.2-9,22.6-13.4
	c1.4-0.8,0.4-1.6,0-2.4c-3-5.4-3-5.5,2.3-8.5c2.5-1.4,5.2-4.6,7.6-3.8c2.1,0.7,3.2,4.4,4.7,6.9c3.6,5.9,7.1,11.9,10.7,17.8
	c0.9,1.5,0.9,2.3-0.8,3c-1,0.4-1.9,1.1-2.8,1.7c-2,1.3-4,3.1-5.4-0.7c-0.6-1.6-1.6-0.3-2.4,0c-1.4,0.5-2.6,2.8-4.2,0
	c-0.7-1.1-1.9,0.4-2.8,0.9c-15.1,9-30.3,17.9-45.4,27c-1.7,1-2.4,1-3.7-0.7c-3.8-4.9-3.9-9.6-1.8-15.5c5.3-14.9,9.7-30.1,14.5-45.2
	C1356.6,318.2,1356.9,317.6,1356.5,316.8z"/>
<path class="st0" d="M671.3,339.8c-0.4,0.7-0.7,1.4-1.1,2.1c-2.6,4.8-5.2,9.7-7.9,14.5c-0.9,1.6-1.2,2.5,0.9,3.4
	c3.1,1.4,6,3.1,9,4.9c1.3,0.7,1.8,0.5,2.4-0.7c3.2-6,6.5-12,9.8-17.9c0.6-1.1,0.7-1.9-0.7-2.5c-0.9-0.4-1.7-1.1-2.5-1.6
	c-5.1-3.2-5.2-3.2-2.1-8.6c1.4-2.4,2-6.4,4.4-6.9c2.1-0.4,4.8,2.2,7.2,3.5c4.5,2.5,9.1,5,13.6,7.4c1.5,0.8,1.8,1.4,0.9,3
	c-9.6,17.4-19,34.9-28.5,52.4c-0.3,0.6-0.6,1.8-1.5,1.3c-2.6-1.3-5.1-2.6-7.5-4.1c-0.8-0.5,0.1-1.2,0.3-1.7c0.4-0.9,0.9-1.8,1.3-2.6
	c-3-1.2-2.9-5.2-5-6.4c-11.3-6.6-22.9-12.6-34.4-18.9c-0.7-0.4-1.6-1.2-2-0.4c-1.4,3-3,1.1-4.3,0.3c-1.5-0.9-2.2-0.4-2.7,1
	c-0.7,2-1.7,1.9-3.4,0.9c-6.2-3.5-6.2-3.4-2.8-9.7c8.2-15.1,16.5-30.1,24.5-45.2c1.2-2.3,2-2.4,4.1-1.2c5.8,3.4,11.7,6.5,17.7,9.6
	c2,1,2.1,1.9,1,3.7c-1.6,2.5-3,5.1-4.3,7.8c-0.9,1.7-1.6,2.5-3.6,1.4c-2.3-1.2-5-3.7-7-2.8c-1.9,0.8-2.8,4.2-4.1,6.5
	c-2,3.6-3.9,7.4-6,11c-0.9,1.5-0.7,2.2,0.9,3c2.6,1.2,5.1,2.6,7.5,4.1c1.9,1.2,2.9,1.1,4-1.1c2.5-5,5.4-9.8,7.9-14.8
	c1-1.9,1.8-2,3.5-1c3,1.8,6.2,3.4,9.2,5.1C670.5,338.7,671.4,338.8,671.3,339.8z"/>
<path class="st0" d="M743.7,203c-3.8,2.2-3.8,2.2-6.5-1.5c-0.4-0.6-0.8-1.3-1.3-1.9c-1.7-1.7-1-2.5,0.7-3.7
	C749.5,187,762.2,178,775,169c2-1.4,4-2.8,5.9-4.2c3.9-2.7,3.9-2.7,6.5,1c3.6,5.1,7.2,10.3,10.8,15.4c1,1.4,1.2,2.2-0.5,3.3
	c-2.8,1.7-5.5,3.7-8.1,5.7c-1.3,0.9-2,1.1-3.1-0.3c-1.7-2.2-3.1-5.9-5.6-6c-2.3,0-4.7,2.8-7.1,4.4c-3.3,2.3-6.4,4.6-9.7,6.8
	c-1.3,0.9-1.4,1.5-0.4,2.7c2,2.5,3.8,5.1,5.5,7.8c1,1.6,1.8,1.4,3.1,0.4c4.7-3.4,9.6-6.6,14.3-10.1c1.6-1.1,2.3-1,3.3,0.6
	c1.9,3,3.9,5.9,6.1,8.6c1.3,1.6,0.7,2.3-0.7,3.2c-4.8,3.3-9.5,6.7-14.4,10c-1.3,0.9-1.7,1.5-0.6,3c2.4,3.1,4.1,8.3,7.1,9.1
	c3,0.9,6.4-3.8,9.6-5.9c2.9-1.9,5.5-4,8.4-5.8c1.4-0.9,1.4-1.5,0.6-2.8c-1.5-2.5-4.8-5.1-3.9-7.5c0.8-2.3,4.5-3.6,6.9-5.3
	c4.3-3.1,4.4-3.1,7.5,1.4c3.6,5,7,10.1,10.7,15.1c1.1,1.4,1.1,2.2-0.5,3.3c-16.2,11.2-32.3,22.6-48.4,33.9c-1.5,1.1-2.4,1.1-3.3-0.6
	c-0.5-1-1.2-1.9-1.9-2.7c-1.9-2.1-2.9-4,0.6-5.6c2-0.9,0.2-2-0.3-2.9c-0.6-1.2-2.4-2.2,0-3.5c1-0.5,0.3-1.3-0.1-1.9
	c-7.7-10.9-15.3-21.8-23-32.7c-0.3-0.4-1-1.1-1.1-1.1C745.5,208.3,745.4,204.2,743.7,203z"/>
<path class="st0" d="M619.6,510.8c5.9,0,11.4,0,16.8,0c1.7,0,3.7-0.4,4.7,1.5c1.1,2-0.5,3.3-1.5,4.7c-16.5,23.2-33.1,46.4-49.7,69.6
	c-0.6,0.9-1.3,1.9-2.2,2.4c-0.9,0.6-2.2,0.5-3.1-0.4c-1.3-1.2-0.9-2.5-0.3-3.9c3.1-7.9,6.1-15.8,9.1-23.7c3-7.7,5.9-15.4,8.9-23
	c0.8-2.1,0.8-2.9-1.8-2.8c-4.4,0.2-8.8,0.1-13.2,0c-3.2-0.1-4.2-1.5-3-4.5c6.7-16.2,13.5-32.4,20.2-48.7c0.7-1.6,1.8-2.3,3.6-2.2
	c7.1,0.1,14.1,0,21.2,0c4,0,5,1.6,3.2,5.2C628.4,493.4,624.1,501.8,619.6,510.8z"/>
<path class="st0" d="M592.9,409.9c0.8-13.9,6.9-25.9,19.3-34.5c1.5-1.1,2.8-1.2,4.5-0.3c4.6,2.4,9.2,4.6,13.9,6.7
	c1.7,0.8,1.9,1.5,1,2.9c-0.7,1.1-1.2,2.4-1.6,3.6c-0.9,2.9-2.2,4.3-5.2,2.2c-1.6-1.1-1.9,0.3-2.2,1.2c-0.9,2.8-2.1,4.6-5.2,2.5
	c-0.9-0.6-1.6-0.3-2.2,0.6c-5.3,8.2-7.6,17.2-2.1,25.7c5.3,8.1,17.5,13.1,25.9,10.6c7.7-2.3,14.3-11.4,15.1-20.7
	c0.3-3.4,0.4-6.9-1-10.1c-0.7-1.6,0.2-1.9,1.3-2.2c4.2-1.2,8.5-2.3,12.7-3.5c2-0.6,2.4,0.5,2.9,2c4.2,14.4,0.3,27.2-8.3,38.8
	c-9.2,12.4-22.4,16.9-37.4,12.8c-14.7-4-25.6-12.4-30.1-27.7c-0.4-1.4-0.7-2.8-0.9-4.2C593.1,414.6,593.1,412.7,592.9,409.9z"/>
<path class="st0" d="M946.2,163.6c2.3-0.9,1.9,1.2,2.1,2.2c0.3,1.7,0.4,3.1,2.8,2.1c1.7-0.7,2.4,0.1,2.8,1.9
	c1.4,7.1,1.5,7.1-5.6,8.7c-7.7,1.7-15.5,3.2-23.2,4.9c-1.8,0.4-3,0.3-3.1-2c0-1.3-0.3-2.6-0.8-3.9c-0.8-2.3-0.7-3.7,2.3-3.9
	c2.4-0.2,1.1-2,0.9-3c-0.2-1.4-0.8-2.7,1.4-2.8c2.1,0,2.1-1,1.7-2.8c-2.7-12.9-5.4-25.8-8-38.8c0-0.2,0-0.5-0.1-0.6
	c-2.7-2.3-5.2,0.3-7.8,0.2c-1.3,0-2.2,0.3-1.9,2.1c0.4,2.8,2.3,6.3,0.6,8.2c-1.4,1.7-5.1,1.4-7.8,1.9c-5.7,1.2-5.6,1.2-6.8-4.5
	c-1.1-5.4-2.2-10.8-3.4-16.1c-0.4-1.9,0-2.6,2-3.1c19.9-4,39.9-8.2,59.8-12.4c1.7-0.4,2.2-0.2,2.6,1.6c1.3,6.8,2.8,13.6,4.3,20.3
	c0.3,1.5,0,2.2-1.6,2.5c-3.5,0.6-6.9,1.4-10.3,2.1c-1.4,0.3-2.1-0.1-2.4-1.4c-0.2-0.6-0.4-1.3-0.5-1.9c-2-6.5-3.6-7.2-10.1-4.6
	c-1.6,0.6-0.9,1.6-0.7,2.4c2.6,13,5.4,26.1,8,39.1C943.7,164.2,944.9,163.8,946.2,163.6z"/>
<path class="st0" d="M1328.4,255.1c-0.7-0.9-1-1.3-1.3-1.6c-1.5-1.3-1.1-2.3,0.4-3.3c1.5-1.1,3.2-2.3,0.6-4.2
	c-0.8-0.6-0.8-1.3,0-1.9c0.3-0.2,0.5-0.4,0.8-0.6c5.4-5,5.4-5,10.2,0.5c5.1,5.9,10.2,11.9,15.4,17.7c1.3,1.4,1.2,2.2-0.3,3.3
	c-1.1,0.8-2.1,1.6-3,2.6c-1.7,1.9-3.1,2.5-4.7-0.1c-1.2-1.9-2,0-2.7,0.6c-1.4,1.2-2.5,2.6-4.1,0.1c-0.7-1.2-1.5-0.3-2.2,0.2
	c-10.1,8.7-20.1,17.5-30.2,26.2c-0.8,0.7-1.2,1.3-0.2,2c2.1,1.6,0.9,2.7-0.6,3.7c-1.6,1.1-2,2.2-0.3,3.5c1.2,0.9,1.1,1.7-0.1,2.8
	c-5.8,5.6-5.7,5.6-11-0.5c-4.9-5.7-9.7-11.4-14.8-16.9c-2-2.1-1.8-3.3,0.5-4.7c0.9-0.6,1.7-1.4,2.5-2.2c1.5-1.7,2.9-2.2,4.3,0.1
	c1.2,2,2.2,0.3,3-0.5c1.3-1.3,2.4-2.2,3.7,0c0.6,1.1,1.3,0.7,2.1,0c10-8.7,20.1-17.5,30.2-26.2
	C1327.3,255.4,1327.9,255.3,1328.4,255.1z"/>
<path class="st0" d="M1010.1,264.4c-33.7,0-67.5,0-101.2,0c-1,0-2,0.1-3-0.1c-1.9-0.3-2.9-1.5-3.1-3.3c-0.1-1.7,0.7-3,2.4-3.5
	c0.9-0.3,1.9-0.3,2.9-0.3c68,0,136,0,204,0c0.9,0,1.8-0.1,2.6,0.1c2,0.6,2.9,2,2.7,4c-0.2,1.8-1.3,3-3.2,3.1c-1,0.1-2,0-3,0
	C1077.6,264.4,1043.9,264.4,1010.1,264.4z"/>
<path class="st0" d="M1046.4,282.2c-17.5,0-35.1,0-52.6,0c-1.1,0-2.2,0.1-3.3-0.2c-1.8-0.5-2.7-1.9-2.6-3.7c0.1-1.9,1.2-3.1,3-3.3
	c1-0.1,2-0.1,3-0.1c35.1,0,70.1,0,105.2,0c0.9,0,1.8,0,2.6,0c2.1,0.2,3.3,1.3,3.4,3.4c0.2,2.2-1.1,3.5-3.2,3.9c-1,0.2-2,0.1-3,0.1
	C1081.5,282.2,1064,282.2,1046.4,282.2z"/>
<path class="st0" d="M1010.8,239.5c7.7,0,15.4,0,23.1,0c2.7,0,4.8,0.7,4.8,3.6c0,2.9-2.1,3.7-4.8,3.7c-15.4,0-30.8,0-46.2,0
	c-2.6,0-4.8-0.6-4.8-3.7c0-3.1,2.2-3.7,4.8-3.7C995.4,239.5,1003.1,239.5,1010.8,239.5z"/>
<path class="st0" d="M880.7,274.8c3.6,0,7.3,0,10.9,0c2.5,0,4.1,1,4.1,3.6c0,2.6-1.7,3.7-4.1,3.7c-7.6,0-15.2,0-22.8,0
	c-2.4,0-4.1-1.2-4.1-3.7c0-2.5,1.6-3.7,4.1-3.7C872.7,274.8,876.7,274.8,880.7,274.8z"/>
<path class="st0" d="M1142.5,282.2c-3.1,0-6.2,0-9.2,0c-2.4,0-4.1-1.2-4.1-3.7c0-2.5,1.7-3.7,4.1-3.7c6.2,0,12.3,0,18.5,0
	c2.5,0,4.1,1.2,4.1,3.7c0,2.5-1.6,3.7-4.1,3.7C1148.7,282.2,1145.6,282.2,1142.5,282.2z"/>
<path class="st0" d="M1293.4,475.9c-1.6,0-3.3,0.1-4.9,0c-2.3-0.2-3.7-1.5-3.7-3.9c0.1-2.1,1.5-3.4,3.6-3.5c3.3-0.1,6.6-0.1,9.9,0
	c2.3,0.1,3.8,1.3,3.8,3.7c0,2.5-1.7,3.7-4.1,3.8C1296.5,476,1294.9,476,1293.4,475.9C1293.4,476,1293.4,475.9,1293.4,475.9z"/>
<path class="st0" d="M729.9,458.2c-1.2,0-2.4,0.1-3.6,0c-2-0.2-3.2-1.5-3.2-3.5c-0.1-2,1-3.5,3-3.7c2.6-0.2,5.3-0.3,7.9,0
	c1.9,0.2,3,1.7,2.9,3.7c-0.1,2.1-1.3,3.2-3.3,3.4C732.3,458.3,731.1,458.2,729.9,458.2z"/>
<path class="st0" d="M1393.9,370.2c-21.3,0-37.8,16.6-37.8,38c0,22.7,17,40.9,38.4,40.9c21.3,0,37.7-16.1,37.7-37.1
	C1432.2,388.7,1415.2,370.2,1393.9,370.2z M1407.9,422.5c-6,4.5-12.8,6.7-20.4,5.4c-7.3-1.3-11.6-6-13.5-12.9
	c-2-7.1,0.2-13.1,5.8-17.7c5-4.1,10.9-6,18.8-6.2c6.6,0.1,12.7,4.5,15.2,12.1C1416.4,410.7,1414.4,417.6,1407.9,422.5z"/>
<path class="st0" d="M1042.9,116.1c-9.5-14.9-24-19.5-40.9-17.2c-21.1,2.8-35.4,22.4-31.8,43.3c3.3,18.9,18.8,31.5,38.9,31.5
	c0.7,0,1.3,0,2,0c14.4-0.9,26-6.8,33-19.7C1050.9,141.4,1050.7,128.3,1042.9,116.1z M1018.8,154.2c-9.4,6.2-21.8,2.1-25.9-8.4
	c-2.4-6.1-2.5-12.5-0.4-18.7c2.7-8.1,9.3-12.3,18.4-11.8c7.6,0.4,13.8,6.1,15.5,14.3c0.5,2.1,0.6,4.3,0.8,5.9
	C1026.9,143.4,1025.3,150,1018.8,154.2z"/>
<path class="st0" d="M1448.5,538.5c-3.4-3.1-4-9.2-0.9-12.7c1.3-1.6,2.7-3.1,3.9-4.6c-1.1-3.3-2.4-6-3.9-8.7
	c-0.9-1.5-1.9-2.4-3.7-1.9c-4.4,1.2-7.9,0.1-11.1-3.3c-1.6-1.7-2.7-3.1-2.8-5.5c-0.2-6.2-0.3-6.2-6.3-8.1c-0.6-0.2-1.3-0.3-1.9-0.5
	c-2.3-1.1-3.9-0.4-5.3,1.6c-1.2,1.7-2.3,4.3-4.2,4.4c-4.5,0.2-9.6,2.6-13.3-2.5c-1.8-2.6-4.1-2.4-6.8-1c-6.1,3.1-6.2,3-5.7,9.7
	c0.3,5.1-4.1,10.3-9.2,10.8c-6.4,0.7-6.4,0.7-8.2,6.9c-0.1,0.2-0.1,0.4-0.2,0.6c-1,2.7-0.7,4.7,1.9,6.4c1.8,1.2,4.4,2.4,4.7,4.4
	c0.6,3.8,1.9,7.7-2,11.2c-4.1,3.6-3.7,4-1.1,8.9c0.3,0.5,0.6,0.9,0.8,1.4c1.4,3,3.2,4.5,6.9,3.7c2.4-0.5,5.1-1.3,7.8,0.9
	c2.8,2.2,4,4.6,3.8,8.1c-0.1,1.6-0.6,3.8,0.8,4.7c3.2,2,6.8,3.1,10.6,3.3c2.4,0.1,3.1-2.5,4.4-3.9c4.2-4.9,7.8-5.2,12.6-1
	c4.3,3.8,4.4,3.9,9.6,1.1c7.2-3.9,5.8-2.2,5.2-9.7c-0.2-2.1,0.3-3.5,1.4-5.3c2.4-3.7,5.8-3.4,9.2-3.7c1.2-0.1,2.7,0.5,3.4-0.8
	c1.8-3.3,3.2-6.8,3.5-10.6C1452.8,540.5,1450,539.8,1448.5,538.5z M1410.9,556.8c-12.2,0.1-22.4-9.9-22.4-22.1
	c-0.1-12.3,9.9-22.3,22.2-22.3c12.1-0.1,22.2,9.8,22.3,21.9C1432.9,546.5,1423,556.7,1410.9,556.8z"/>
<path class="st0" d="M1305,210.9c-8.3-9-18.2-16.3-27.4-24.4c-5.6-5-5.7-4.9-10.5,1.1c-0.9,1.2-1.3,1.9,0.2,2.8
	c1.7,1,1.9,2.1,0.3,3.6c-1.3,1.2-2.2,2.5,0.1,3.8c1.4,0.8,0.3,1.7-0.3,2.4c-8.6,10-17.3,20-25.9,30c-0.7,0.8-1.3,1.7-2.3,0.4
	c-1.6-2-2.6-0.7-3.7,0.6c-0.6,0.7-1.3,2.6-2.7,0.9c-2.1-2.4-3.4-1.3-4.7,0.7c-0.9,1.3-2,2.4-3,3.5c-0.9,0.9-0.8,1.6,0.2,2.4
	c10,8.5,19.8,17.2,30,25.4c6.8,5.5,14.9,8,23.8,6.9c8.5-1.1,15.3-5.3,21.3-11.1c7.8-7.5,13.6-16.2,13.6-26.1
	C1313.8,224.7,1311,217.4,1305,210.9z M1270.4,254.5c-4.8-0.9-8.3-3.9-11.8-6.9c-5.7-4.9-5.7-4.9-0.9-10.5
	c7.2-8.3,14.5-16.6,21.5-25.1c1.8-2.1,2.8-1.9,4.6-0.2c2.7,2.7,6,4.9,8.5,7.8c3,3.5,4.6,7.4,4.7,10.8
	C1297.1,244.2,1282.6,256.7,1270.4,254.5z"/>
<path class="st0" d="M1148,185.8c-0.7-0.2-2.5-0.1-1.9-1.1c1.5-2.8-0.7-4.8-1.1-7.2c-3-19.5-5.8-39-8.7-58.5
	c-0.2-1.7-0.8-2.6-2.7-3.1c-7.6-1.9-15.1-4-22.6-6c-5.3-1.4-5.2-1.4-6.7,3.9c-0.6,2.2-1.8,4.5,2,4.8c0.4,0,0.7,0.4,1.1,0.6
	c-1.6,2.4,0.8,5.2-1.3,7.7c-9.2,10.7-18.2,21.6-27.2,32.4c-0.5,0.6-1.1,1.7-1.5,1.6c-2.9-0.3-2.7,1.8-3.1,3.5
	c-0.3,1.1-0.8,1.7-1.8,1.1c-3-1.6-3.5,0.5-4,2.7c-0.3,1.3-0.4,2.6-1,3.8c-0.9,1.9,0.1,2.5,1.7,2.9c6.8,1.8,13.6,3.6,20.4,5.4
	c2.4,0.6,5.5,2.4,7.2,1.5c2-1,1.7-4.7,2.5-7.2c0.7-2.1,1.9-4.5,1.4-6.3c-0.6-2.2-3.9-1.3-5.6-2.5c-0.1-0.1-0.1-0.2-0.4-0.5
	c1-1.2,2.1-2.4,3-3.8c1-1.5,2.1-1.6,3.6-1.1c8.2,2.2,16.3,4.4,24.5,6.6c0.9,0.2,2.2,0.2,2.2,1.6c0,2.1,1,4.1,0.5,6.3
	c-1.6-0.4-3.1-0.7-4.5-1.3c-2-0.7-2.8-0.3-3.3,1.9c-0.6,3.2-1.6,6.4-2.6,9.5c-0.6,1.9-0.4,2.8,1.9,3.4c6.9,1.7,13.8,3.7,20.7,5.5
	c7.6,2,7.5,2,9.2-5.6C1150.1,186.7,1149.5,186.2,1148,185.8z M1123.2,151.7c-4.1-1.1-8.2-2.2-12.4-3.4c-1.1-0.3-2.2-0.5-0.9-2.1
	c4.3-5.3,8.4-10.6,13.1-16.5c0.8,7.2,1.4,13.7,2.2,20.1C1125.5,151.9,1124.9,152.2,1123.2,151.7z"/>
<path class="st0" d="M1423.1,534.6c0,6.9-5.2,12.2-12,12.3c-6.7,0-12.2-5.4-12.3-12.1c0-6.7,5.4-12.2,12.1-12.3
	C1417.7,522.4,1423,527.7,1423.1,534.6z"/>
</svg>
