<?xml version="1.0" encoding="utf-8"?>
<!-- Generator: Adobe Illustrator 23.0.5, SVG Export Plug-In . SVG Version: 6.00 Build 0)  -->
<svg version="1.1" id="Capa_1" xmlns="http://www.w3.org/2000/svg" xmlns:xlink="http://www.w3.org/1999/xlink" x="0px" y="0px"
	 viewBox="0 0 1920 1080" style="enable-background:new 0 0 1920 1080;" xml:space="preserve">
<style type="text/css">
	.st0{fill:#FFFFFF;}
</style>
<path class="st0" d="M1368.1,501.4c-42.2-61.3-84.4-122.4-126.5-183.8c-65.4-95.5-130.7-191-196-286.6c-25.8,0-51.5,0-77.3,0
	c0.2,85.1,0.9,170.2,0.2,255.3c-0.1,15.8,3.5,21.3,20,20.3c18.4-1.1,37.2,0.3,55.6,2.4c11.4,1.2,15.2-1.3,14.9-13
	c-0.7-26.9-0.2-53.9-0.2-87.6c35.6,50.9,67.5,96.7,99.4,142.4c-0.5,2-0.9,4-1.4,6c-131.2-43.3-262.3-43.3-393.2,0.6
	c-0.4-1.7-0.7-3.4-1.1-5.1c31.7-45.5,63.5-91,95.2-136.5c1.6,0.1,3.3,0.2,4.9,0.3c0,24.2,0.9,48.5-0.3,72.7
	c-0.8,16.6,2.8,22.9,21.2,19.7c17.4-3,35.6-2.2,53.5-2c10.2,0.1,15.5-1.3,15.4-13.7c-0.8-87.2-0.9-174.5-1.2-261.7
	c-24.3,0-48.7,0-73,0C766,193.5,653.9,355.9,539.5,521.6c28.5,0,51.4-1,74.2,0.3c20.9,1.2,38.1-4,55.3-16.8
	c89.4-66.5,191.4-95.4,301.7-93.6c108.2,1.7,206.4,35.4,293.2,100.8c5,3.8,9.5,9.1,16.6,9.1c32.6,0.1,65.2,0,101.1,0
	C1375.9,512.8,1372,507,1368.1,501.4z"/>
<path class="st0" d="M1013.6,524.2c-44.7,0-44.7,0-44.7-44c0-50.7,0-50.7,51.2-45.7c42.1,4.1,42.1,4.1,42.1,45.3
	C1062.2,524.2,1062.2,524.2,1013.6,524.2z"/>
<path class="st0" d="M952.1,478c0,46.2,0,46.2-47.2,46.2c-44.7,0-44.7,0-44.7-44.3c0-41.3,0-41.3,42.2-45.4c0.7-0.1,1.4-0.1,2.1-0.2
	C952.1,429.8,952.1,429.8,952.1,478z"/>
<g>
	<path class="st0" d="M624.6,791.9h-42.7l-11.2-32.4h-59.3l-11.2,32.4h-41.7l59.2-160.3h47.6L624.6,791.9z M560.8,730.1l-19.7-57.4
		l-19.7,57.4H560.8z"/>
	<path class="st0" d="M720.1,795c-11.9,0-22.9-1.8-33-5.3c-10.1-3.5-18.8-8.8-26-15.7c-7.3-7-12.9-15.6-16.9-26.1
		c-4-10.4-6-22.4-6-36.1c0-12.7,1.9-24.2,5.7-34.6c3.8-10.3,9.3-19.2,16.6-26.6c7-7.1,15.6-12.6,25.9-16.5
		c10.3-3.9,21.6-5.8,33.8-5.8c6.7,0,12.8,0.4,18.3,1.1c5.4,0.8,10.4,1.7,15,3c4.8,1.4,9.2,2.9,13.1,4.6c3.9,1.7,7.3,3.2,10.3,4.7
		v38.9h-4.7c-2-1.7-4.5-3.7-7.6-6.1c-3.1-2.4-6.5-4.7-10.4-7c-3.9-2.3-8.2-4.2-12.8-5.8c-4.6-1.6-9.5-2.4-14.8-2.4
		c-5.8,0-11.3,0.9-16.6,2.7c-5.2,1.8-10.1,4.9-14.5,9.1c-4.2,4.1-7.7,9.5-10.3,16.2c-2.6,6.7-3.9,14.9-3.9,24.5
		c0,10,1.4,18.4,4.3,25.1c2.8,6.7,6.4,12,10.7,15.9c4.4,3.9,9.3,6.8,14.6,8.4c5.4,1.7,10.7,2.5,15.9,2.5c5,0,10-0.7,14.9-2.2
		c4.9-1.5,9.5-3.5,13.6-6.1c3.5-2.1,6.8-4.3,9.8-6.6c3-2.4,5.5-4.4,7.4-6.1h4.3v38.3c-4,1.8-7.9,3.5-11.5,5.1
		c-3.7,1.6-7.5,2.9-11.5,4.1c-5.2,1.5-10.2,2.7-14.8,3.4C734.5,794.6,728.2,795,720.1,795z"/>
	<path class="st0" d="M923.2,791.9h-116V631.5h116v31h-74.8v27.7h69.5v31h-69.5v39.6h74.8V791.9z"/>
	<path class="st0" d="M1112.3,791.9h-50.5l-43.6-58.8H999v58.8h-41.1V631.5h69.3c9.5,0,17.6,0.5,24.4,1.6c6.8,1.1,13.2,3.4,19.2,7
		c6,3.6,10.8,8.2,14.4,13.9s5.3,12.9,5.3,21.5c0,11.8-2.7,21.5-8.2,29c-5.5,7.5-13.3,13.7-23.5,18.6L1112.3,791.9z M1047.8,680.6
		c0-4-0.8-7.5-2.5-10.3c-1.7-2.9-4.5-5.1-8.5-6.8c-2.8-1.1-6.1-1.8-9.8-2.1c-3.7-0.3-8.1-0.4-13-0.4h-15v43.2h12.7
		c6.6,0,12.1-0.3,16.6-1c4.5-0.6,8.2-2.1,11.2-4.4c2.9-2.2,5-4.7,6.3-7.4C1047.1,688.8,1047.8,685.2,1047.8,680.6z"/>
	<path class="st0" d="M1286.3,711.8c0,25.6-7.3,45.9-22,60.9c-14.6,15-34.9,22.6-60.7,22.6c-25.8,0-46-7.5-60.6-22.6
		c-14.6-15-22-35.3-22-60.9c0-25.8,7.3-46.1,22-61.1c14.6-15,34.9-22.5,60.6-22.5c25.7,0,45.9,7.5,60.6,22.5
		C1278.9,665.6,1286.3,686,1286.3,711.8z M1231.5,752.4c4-4.9,7-10.6,8.9-17.3c1.9-6.6,2.9-14.4,2.9-23.4c0-9.6-1.1-17.8-3.3-24.6
		c-2.2-6.7-5.1-12.2-8.7-16.4c-3.7-4.3-7.9-7.4-12.7-9.4c-4.8-1.9-9.7-2.9-14.9-2.9c-5.2,0-10.2,0.9-14.8,2.8
		c-4.6,1.9-8.9,5-12.8,9.3c-3.6,4-6.5,9.6-8.8,16.6c-2.3,7.1-3.4,15.3-3.4,24.6c0,9.5,1.1,17.7,3.3,24.4c2.2,6.7,5.1,12.2,8.7,16.4
		c3.6,4.2,7.8,7.4,12.6,9.4c4.8,2,9.9,3,15.2,3s10.4-1,15.2-3.1C1223.7,759.8,1227.9,756.7,1231.5,752.4z"/>
	<path class="st0" d="M1446.2,741.5c0,15.8-6.7,28.6-20.1,38.5c-13.4,9.9-31.6,14.8-54.5,14.8c-13.3,0-24.9-1.2-34.7-3.5
		c-9.9-2.3-19.1-5.3-27.7-8.9V744h4.5c8.5,6.8,18.1,12.1,28.7,15.7c10.6,3.7,20.8,5.5,30.5,5.5c2.5,0,5.8-0.2,9.9-0.6
		s7.4-1.1,10-2.2c3.2-1.3,5.8-2.9,7.8-4.8c2-1.9,3.1-4.8,3.1-8.6c0-3.5-1.5-6.5-4.5-9.1c-3-2.5-7.3-4.5-13.1-5.9
		c-6-1.4-12.4-2.8-19.1-4c-6.7-1.3-13-2.9-18.9-4.8c-13.5-4.4-23.2-10.3-29.1-17.8c-5.9-7.5-8.9-16.8-8.9-27.9
		c0-14.9,6.7-27.1,20.1-36.6c13.4-9.4,30.6-14.2,51.6-14.2c10.6,0,21,1,31.3,3.1c10.3,2,19.2,4.6,26.8,7.7v36.9h-4.4
		c-6.5-5.2-14.4-9.5-23.7-13c-9.4-3.5-18.9-5.2-28.7-5.2c-3.4,0-6.9,0.2-10.3,0.7c-3.4,0.5-6.7,1.3-9.9,2.6
		c-2.8,1.1-5.2,2.7-7.2,4.9c-2,2.2-3,4.7-3,7.5c0,4.2,1.6,7.5,4.8,9.7c3.2,2.3,9.3,4.3,18.3,6.2c5.9,1.2,11.5,2.4,17,3.6
		c5.4,1.1,11.3,2.7,17.5,4.7c12.3,4,21.3,9.5,27.2,16.4C1443.3,721.4,1446.2,730.4,1446.2,741.5z"/>
</g>
<g>
	<path class="st0" d="M485.3,1009.8h-42.7l-11.2-32.4h-59.3l-11.2,32.4h-41.7l59.2-160.3h47.6L485.3,1009.8z M421.5,948l-19.7-57.4
		L382.1,948H421.5z"/>
	<path class="st0" d="M662.8,1009.8h-50.5L568.7,951h-19.2v58.8h-41.1V849.4h69.3c9.5,0,17.6,0.5,24.4,1.6c6.8,1.1,13.2,3.4,19.2,7
		c6,3.6,10.8,8.2,14.4,13.9s5.3,12.9,5.3,21.5c0,11.8-2.7,21.5-8.2,29c-5.5,7.5-13.3,13.7-23.5,18.6L662.8,1009.8z M598.3,898.5
		c0-4-0.8-7.5-2.5-10.3c-1.7-2.9-4.5-5.1-8.5-6.8c-2.8-1.1-6.1-1.8-9.8-2.1c-3.7-0.3-8.1-0.4-13-0.4h-15v43.2h12.7
		c6.6,0,12.1-0.3,16.6-1c4.5-0.6,8.2-2.1,11.2-4.4c2.9-2.2,5-4.7,6.3-7.4C597.6,906.7,598.3,903.1,598.3,898.5z"/>
	<path class="st0" d="M796.8,1009.8h-116V849.4h116v31H722v27.7h69.5v31H722v39.6h74.8V1009.8z"/>
	<path class="st0" d="M937,1007.8c0.3,7.1,2.2,12.3,5.8,15.4c3.6,3.1,9.7,4.7,18.4,4.7c2.9,0,6.4-0.5,10.4-1.5c4-1,6.8-1.9,8.4-2.7
		h4.1v28.3c-4,0.9-8.4,1.8-13.1,2.5c-4.7,0.7-11.9,1.1-21.6,1.1c-8.5,0-16-1.1-22.3-3.2c-6.4-2.1-11.6-5.1-15.9-9
		c-4.2-3.8-7.3-8.3-9.4-13.5c-2.1-5.2-3.3-10.9-3.7-17.2c-24-1.4-42.7-9.4-56-24.1c-13.4-14.7-20.1-34.3-20.1-59
		c0-25.8,7.3-46.1,22-61.1c14.6-15,34.9-22.5,60.6-22.5c25.7,0,45.9,7.5,60.6,22.5c14.7,15,22.1,35.3,22.1,61.1
		c0,19-4.3,35.4-12.9,49.3C965.9,992.8,953.4,1002.4,937,1007.8z M932.6,970.3c4-4.9,7-10.6,8.9-17.3c1.9-6.6,2.9-14.4,2.9-23.4
		c0-9.6-1.1-17.8-3.3-24.6c-2.2-6.7-5.1-12.2-8.7-16.4c-3.7-4.3-7.9-7.4-12.7-9.4c-4.8-1.9-9.7-2.9-14.9-2.9
		c-5.2,0-10.2,0.9-14.8,2.8c-4.6,1.9-8.9,5-12.8,9.3c-3.6,4-6.5,9.6-8.8,16.6c-2.3,7.1-3.4,15.3-3.4,24.6c0,9.5,1.1,17.7,3.3,24.4
		c2.2,6.7,5.1,12.2,8.7,16.4c3.6,4.2,7.8,7.4,12.6,9.4c4.8,2,9.9,3,15.2,3c5.3,0,10.4-1,15.2-3.1C924.8,977.7,929,974.6,932.6,970.3
		z"/>
	<path class="st0" d="M1159.4,951.7c0,19.8-6,35-18.1,45.5c-12.1,10.6-29.8,15.8-53.3,15.8c-23.5,0-41.2-5.3-53.2-15.8
		c-12-10.6-18-25.7-18-45.4V849.4h41.6v100c0,11.1,2.3,19.4,7,24.9c4.7,5.5,12.2,8.2,22.7,8.2c10.3,0,17.9-2.6,22.7-7.9
		c4.8-5.2,7.2-13.6,7.2-25.2v-100h41.6V951.7z"/>
	<path class="st0" d="M1284.7,1009.8h-93.9v-28.4h26.3V877.9h-26.3v-28.4h93.9v28.4h-26.3v103.5h26.3V1009.8z"/>
	<path class="st0" d="M1450.8,900.1c0,7.2-1.3,14.2-3.8,21.1c-2.5,6.9-6.1,12.6-10.8,17.3c-6.4,6.3-13.5,11.1-21.4,14.3
		c-7.9,3.2-17.6,4.8-29.3,4.8h-25.7v52.2h-41.3V849.4h68.1c10.2,0,18.8,0.9,25.8,2.6c7,1.8,13.2,4.4,18.6,7.9
		c6.5,4.2,11.4,9.7,14.8,16.3C1449.1,882.9,1450.8,890.8,1450.8,900.1z M1408,901c0-4.5-1.2-8.4-3.7-11.7c-2.4-3.3-5.3-5.5-8.5-6.8
		c-4.3-1.7-8.5-2.7-12.6-2.8s-9.5-0.3-16.4-0.3h-7.1v47.9h11.8c7,0,12.8-0.4,17.4-1.3c4.6-0.9,8.4-2.6,11.5-5.2
		c2.7-2.3,4.6-5,5.8-8.2C1407.4,909.4,1408,905.6,1408,901z"/>
	<path class="st0" d="M1628.2,1009.8h-42.7l-11.2-32.4H1515l-11.2,32.4h-41.7l59.2-160.3h47.6L1628.2,1009.8z M1564.4,948
		l-19.7-57.4L1525,948H1564.4z"/>
</g>
</svg>
