<?xml version="1.0" encoding="utf-8"?>
<!-- Generator: Adobe Illustrator 23.0.5, SVG Export Plug-In . SVG Version: 6.00 Build 0)  -->
<svg version="1.1" id="Capa_1" xmlns="http://www.w3.org/2000/svg" xmlns:xlink="http://www.w3.org/1999/xlink" x="0px" y="0px"
	 viewBox="0 0 1920 1080" style="enable-background:new 0 0 1920 1080;" xml:space="preserve">
<style type="text/css">
	.st0{fill:#F2F2F2;}
</style>
<path class="st0" d="M1659.4,528.4c0-46.1,0.2-92.2-0.1-138.2c0-7.4,1.6-10,9.5-9.8c19.8,0.6,39.7,0.5,59.5,0.1
	c7-0.2,8.5,2.2,8.4,8.7c-0.3,30.1,0.1,60.2-0.3,90.2c-0.1,8.3,2.2,11,10.8,10.8c23.3-0.6,46.7-0.6,70.1,0c8.7,0.2,11.6-1.8,11.5-11
	c-0.6-29.7,0.1-59.5-0.4-89.3c-0.1-7.8,2.3-9.7,9.7-9.5c18.9,0.5,37.8,0.5,56.6,0c7.8-0.2,10.3,1.7,10.3,9.9
	c-0.3,66.9-0.1,133.8-0.1,200.6c0,25.3-0.3,50.6,0.1,75.8c0.1,6.8-1.2,9.6-8.8,9.3c-19.8-0.6-39.7-0.4-59.5-0.1
	c-6.6,0.1-8.8-1.7-8.7-8.6c0.3-33-0.1-65.9,0.3-98.9c0.1-7.5-2-9.9-9.7-9.7c-24,0.5-48,0.5-72,0c-7.9-0.2-9.7,2.6-9.7,9.9
	c0.3,32.6-0.1,65.3,0.3,97.9c0.1,7.6-2.1,9.7-9.7,9.5c-19.5-0.5-39-0.5-58.5,0c-7.6,0.2-9.7-1.8-9.7-9.5
	C1659.6,620.5,1659.4,574.5,1659.4,528.4z"/>
<path class="st0" d="M1242.7,680.9c-41.5,0.6-79.4-16.4-113.2-44.5c-6-5-5.6-8.3-0.5-13.4c11.5-11.6,22.8-23.4,33.5-35.6
	c5.2-6,8.9-5.7,14.8-1c16.6,13.2,34.5,24.4,55.4,29.7c12.3,3.1,24.4,4.1,36.2-2.9c10.5-6.2,15.9-14.7,14.1-26.9
	c-1.8-12.3-10.2-18.9-21.4-21.8c-18.2-4.7-36.8-7.8-55-12.9c-25.4-7.2-45.6-20.7-59.7-43.4c-21.3-34.4-12.4-83,19.5-108
	c46.7-36.6,95.8-32.3,146.2-9.7c11.7,5.2,22.3,12.4,32.3,20.5c4.4,3.6,5.2,6.1,0.9,10.5c-11.4,11.7-22.6,23.6-33.3,35.9
	c-4.3,4.9-7.3,4-11.9,0.9c-14.6-10-30.1-17.9-48-20.3c-11.3-1.5-21.7,0.5-31.3,6.1c-16.3,9.5-16.2,31.2,0.1,40.8
	c11.2,6.5,24,8.5,36.5,11c16.3,3.2,32.6,6.5,47.9,13.3c33.2,14.8,51.9,39.5,52.2,76.6c0.3,35.9-16.1,62.3-46.6,80.3
	C1291.2,677.6,1268.9,680.9,1242.7,680.9z"/>
<path class="st0" d="M1513,373.8c50.1,1.1,87,19,114.3,56.3c3.9,5.3,4,8-1.9,11.7c-16.5,10.3-32.7,21.2-48.9,32
	c-3.4,2.3-5.2,3.1-8.3-1.1c-14.4-20.1-33-32.5-58.8-27.2c-27.4,5.7-44.4,23.9-51.5,50c-8.5,31.4-6.2,62.2,13.5,89.7
	c24.3,33.9,70.9,34.2,95,0.3c4.3-6.1,6.6-6.2,12.3-2.2c15.4,10.8,31.2,21.2,47.2,31.1c6,3.7,5.7,6.4,2.1,11.8
	c-30.3,45.9-93,67.2-148.8,49.3c-57.1-18.3-87.5-59.7-96.9-117.4c-6.7-41.1-2-81.2,19.2-117.8C1427.2,396.1,1467.2,376.1,1513,373.8
	z"/>
<path class="st0" d="M816.4,581.8c-3.4-25.4-17.7-43.3-40.4-54.6c-5.5-2.7-6.2-4.4-1.1-8.1c5.2-3.7,10.1-7.8,14.2-12.8
	c30.5-36.7,11.8-101.8-34-117.9c-12.7-4.5-25.7-7.5-39.3-7.5c-44.1,0.1-88.3,0.2-132.4-0.2c-8-0.1-10.2,2.1-10.1,10
	c0.4,45.7,0.2,91.5,0.2,137.2c0.1,0,0.1,0,0.2,0c0,46.4,0.2,92.7-0.2,139.1c-0.1,7.4,2.2,9,9.1,8.9c47.3-0.3,94.7,0,142-0.2
	c17.8-0.1,34.7-4.4,50.4-13.2C804.4,646.3,820.9,615,816.4,581.8z M652.1,442c8.6,0.2,17.3,0.1,25.9,0.1c0,0,0,0,0,0
	c8.3,0,16.6-0.2,24.9,0.1c14.9,0.5,25.6,12,26.1,27.7c0.4,14.1-9.9,26.9-23.9,27.6c-17.9,0.9-35.8,0.2-53.7,0.3
	c-4.1,0-5.7-1.7-5.7-5.7c0.1-14.7,0.1-29.4-0.1-44.1C645.5,443.1,647.8,441.9,652.1,442z M707.6,615.1c-8.9,0.2-17.9,0-26.8,0
	c-9.3,0-18.5-0.2-27.8,0.1c-5.2,0.2-7.5-1.2-7.4-6.9c0.3-15.3,0.3-30.7,0-46c-0.1-5.1,2-6.7,6.8-6.7c18.8,0.1,37.7-0.4,56.5,0.2
	c17.4,0.6,30.3,14.2,29.7,29.9C737.9,603.7,726.3,614.7,707.6,615.1z"/>
<path class="st0" d="M1070.7,418c-61.5-65.7-167.4-53.8-211.3,24.6c-22.3,39.9-27.1,83.5-16.1,128.1c8.8,35.7,25.6,66.3,57.5,87.3
	c52.6,34.7,119.3,29.8,165-13.7c32.3-30.8,43.8-70.2,45-115.4C1109.4,488.9,1100.4,449.7,1070.7,418z M1027.1,576.5
	c-12.3,21.6-30.6,35.1-55.9,33.6c-26.7-1.6-43.3-18.5-53.3-42.2c-5.5-13.1-7.7-27-7.5-47.7c1.1-22,8.4-47.9,33.7-64.8
	c23-15.3,57.1-9.4,74.3,12.2C1040.8,495.7,1044.9,545.3,1027.1,576.5z"/>
<path class="st0" d="M197.4,569c42.4-0.6,84.8-1,127.3,0.2c-1.8,0.4-3.6,1.2-5.4,1.2c-38.2,0.1-76.3,0.1-114.5,0
	C202.3,570.4,199.6,570.8,197.4,569z"/>
<path class="st0" d="M184.6,500c0,20.2,0,40.4,0,60.6c-1,0.6-2.1,0.4-2.1-0.7c-0.1-19.8,0-39.7,0-59.5c0-0.2,0.3-0.7,0.4-0.7
	C183.5,499.8,184,499.9,184.6,500z"/>
<path class="st0" d="M481.6,493.9c-1.1-5.4-2.1-10.9-3.4-16.3c-12.7-55.6-42.1-100.3-88.1-134v0c-3.2-4.1-7.7-6.6-12-9.2
	c-57.5-35.1-119-43.9-184.1-26.9c-49.2,12.8-89.3,40-121,79.3c-43.3,53.7-57.7,115.6-48.3,183.1c4.6,33.1,16.1,64,36.3,91.2
	c0,0,0,0,0,0c6,9.9,13.4,18.6,21.3,27c53.4,56.9,119.8,81.3,196.5,73.9c63.7-6.1,116.4-35.9,156.5-86.1
	c24.6-30.9,40.9-65.9,46.2-105.4C486.6,545,486.1,519.4,481.6,493.9z M49.8,493.8c0,0.3-0.1,0.7-0.1,1c-0.5-0.1-0.9-0.3-1.1-0.6
	C49,493.9,49.4,493.7,49.8,493.8C49.8,493.8,49.8,493.8,49.8,493.8C49.8,493.8,49.8,493.8,49.8,493.8z M52,549.2c0,0,0-0.1,0-0.1
	c0.1,0,0.1,0,0.2,0C52.1,549.2,52,549.2,52,549.2z M448.6,554c-8.7,71.2-46,123.4-109.8,154.8c-51.6,25.4-105.2,25.3-159,4.5
	c-10.1-3.9-18.6-11.2-29.7-12.6c-0.4,0.2-0.6,0.4-0.9,0.6c-4.9-1.9-8.2-6.1-12.3-9.1c-27.7-19.9-48.7-45.4-63.7-76
	c-10.3-21.1-15.7-43.6-19.4-66.6c0.1-11.5,0.2-23,0.3-34.6c3-6,1.9-12.7,3.3-18.9c0,0,0.1,0,0.1,0.1c2.8-2.1,3.4-5.3,4.1-8.4
	c9.4-39.8,29.6-73.1,59.5-101c46.6-43.4,102.1-58.4,163.9-50.1c41.1,5.5,76.3,24.6,105.3,54.7c2.8,2.9,5.2,7,10.2,6.5
	c0,0.4-0.1,0.9,0,1.4c0.8,3.3,3.1,5.5,5.1,8C438.9,450.6,455.3,499,448.6,554z M479.5,496.1C479.5,496.1,479.5,496.1,479.5,496.1
	C479.6,496,479.6,496,479.5,496.1C479.6,496,479.6,496.1,479.5,496.1z"/>
<path class="st0" d="M414.6,484.6c-10.7-39.6-31.5-72.5-65.7-96.2c-5.1-6.4-11.5-10.5-19.9-7.9c-8.3,2.6-6.9,10.1-7.4,16.7
	c-1.4,16.6-0.5,33.2-0.7,49.8c-0.2,13.6,0,13.6-13.1,13.6c-24.6,0-49.2,0.2-73.8-0.1c-15.9-0.2-32,1.4-47.8-1.3l0,0
	c-0.1-19.9-0.3-39.8-0.4-59.7c0,0,0,0,0,0c0,0,0,0,0,0c0.1-2.5,0.2-5,0.2-7.5c-2.4-13.7-7.5-16.1-19.3-8.3
	c-50.7,33.7-78.1,80.9-80.8,141.8c-1.5,34.8,5.6,67.6,25.4,96.9c14.2,24.2,34.2,42.6,57.4,57.7c5.1,3.3,11.3,5.4,15.3-2.3
	c1.7-3.2,2.2-6.7,1.8-10.2c-2.1-18.8-0.2-37.7-1.2-56.5c-0.4-8.2,2.6-10.1,10.3-10c41.2,0.3,82.4,0,123.7,0c0.8,0.7,1.6,1.3,2.4,2
	c0,0,0,0,0,0c0,0,0,0,0,0c0.5,22.9-0.8,45.7,0.6,68.6c0.4,6.4,1.8,10.1,8.6,10.3c3.9,0.8,7.3-0.1,10.7-2.4
	c23.5-15.3,42.9-34.4,56.5-59.2c2-3.9,3.9-7.7,6-11.6c12.9-24.5,17.3-51.1,17.9-78.2C421.7,515.3,418.7,499.6,414.6,484.6z"/>
<path class="st0" d="M147.9,584.1c0,5.7-0.6,11.4-1.4,17c-1,6.7-2.9,0.2-4.4,0.1c-13-24.9-21.6-51-18.7-79.6
	c2.4-23.4,9.3-45.3,22.5-65c0.7,7.2,2,14.4,2,21.5C148.1,513.5,148,548.8,147.9,584.1z"/>
<path class="st0" d="M178.3,675.1c0-0.5,0-1,0-1.5c0.2,0.1,0.3,0.1,0.5,0.2c0,0,0,0,0.1,0C178.7,674.2,178.5,674.7,178.3,675.1z"/>
<path class="st0" d="M320.8,559.1c-0.1,6.2-5.1,5.3-9.2,5.3c-32.6,0-65.2,0-97.7,0c-7.3,0-14.7,0.4-22,0.6c-3.4,0.1-5.6-1.8-7.3-4.5
	c-2.8-15.8-0.7-31.7-1.1-47.6c-0.1-4.3-1.5-8.9,1.2-13c2.2-2.6,5.1-2.1,7.9-2.1c42.7,0,85.3,0,128,0
	C323.5,518.4,321.2,538.7,320.8,559.1z"/>
<path class="st0" d="M358.5,611.4C358.5,611.4,358.5,611.4,358.5,611.4C358.5,611.4,358.5,611.4,358.5,611.4
	c-0.1-0.1-0.2-0.2-0.2-0.4c0.1,0,0.2-0.1,0.3-0.1C358.6,611.1,358.6,611.2,358.5,611.4z"/>
<path class="st0" d="M366.6,599.4c-2,3.6-4,7-7.4,9.3c0-51.3,0-102.5,0-153.8c14.5,19.1,20.8,41.1,24.8,63.9
	C385,547.1,380.3,574.2,366.6,599.4z"/>
</svg>
