<?xml version="1.0" encoding="utf-8"?>
<!-- Generator: Adobe Illustrator 23.0.5, SVG Export Plug-In . SVG Version: 6.00 Build 0)  -->
<svg version="1.1" id="Capa_1" xmlns="http://www.w3.org/2000/svg" xmlns:xlink="http://www.w3.org/1999/xlink" x="0px" y="0px"
	 viewBox="0 0 1920 1080" style="enable-background:new 0 0 1920 1080;" xml:space="preserve">
<style type="text/css">
	.st0{fill-rule:evenodd;clip-rule:evenodd;fill:#FFFFFF;}
	.st1{fill:#FFFFFF;}
</style>
<path class="st0" d="M558.2,600.9h-34.1V498.6h-28.2v-28.9h90.5v28.9h-28.2V600.9L558.2,600.9z M711.2,600.9h-42.4l-32.2-50.5h-0.3
	v50.5h-34.1V469.7h51c25.9,0,45.6,12.4,45.6,40.4c0,18.1-10.1,33.7-28.7,37.1L711.2,600.9L711.2,600.9z M636.3,528.5h3.3
	c11.1,0,23.7-2.1,23.7-16.3c0-14.3-12.5-16.3-23.7-16.3h-3.3V528.5L636.3,528.5z M760.8,578.1l-9,22.8h-36.2L766,469.7h37.2
	l49.4,131.2h-36.4l-8.5-22.8H760.8L760.8,578.1z M784.6,510.3h-0.3L770.2,552h28.4L784.6,510.3z M881.1,469.7h33.6l26.6,70.1
	l28.2-70.1h33.9l19.8,131.2h-34.1l-9.6-75.5h-0.3l-31.5,75.5h-13.6l-30.1-75.5h-0.3l-11,75.5h-33.9L881.1,469.7L881.1,469.7z
	 M1175.1,532.9c0,42.4-29.5,72.4-70.3,72.4c-40.8,0-70.3-29.9-70.3-72.4c0-39.7,33.7-67.5,70.3-67.5
	C1141.4,465.4,1175.1,493.2,1175.1,532.9z M1068.8,533.1c0,22.6,16.2,39.1,35.9,39.1c19.7,0,35.9-16.5,35.9-39.1
	c0-18.1-16.2-34.6-35.9-34.6C1085,498.4,1068.8,515,1068.8,533.1z M1194.2,469.7h34.1l62.5,80.2h0.3v-80.2h34.1v131.2h-34.1
	l-62.5-80.4h-0.3v80.4h-34.1V469.7z M1403.1,600.9H1369V498.6h-28.2v-28.9h90.4v28.9h-28.2L1403.1,600.9L1403.1,600.9z
	 M1481.2,600.9h-34.1V469.7h34.1V600.9z M1503.4,469.7h34.1l62.5,80.2h0.3v-80.2h34.1v131.2h-34.1l-62.5-80.4h-0.3v80.4h-34.1V469.7
	z M1686.6,578.1l-9,22.8h-36.2l50.4-131.2h37.2l49.4,131.2H1742l-8.5-22.8H1686.6L1686.6,578.1z M1710.4,510.3h-0.3l-14.1,41.7h28.4
	L1710.4,510.3z"/>
<g>
	<path class="st1" d="M312,405.7H103.4c-8.2,0-15.6,3.3-20.9,8.6v0c-5.5,5.5-8.7,13.1-8.7,20.9v208.6c0,8.2,3.3,15.6,8.7,20.9
		c5.5,5.6,13.1,8.7,20.9,8.7h0v0H312c16.3,0,29.5-13.2,29.6-29.5c0,0,0,0,0-0.1V435.2c0-8.2-3.3-15.6-8.7-20.9
		C327.4,408.8,319.9,405.7,312,405.7z M325.1,539.6c0,32.4-13.1,61.8-34.4,83c-22,22-51.9,34.4-83,34.4h0
		c-32.5,0-61.8-13.8-83.1-35.6c-21.9-22.5-34.2-52.6-34.3-84V529H176v66.9h36.8v-64.7h40.1v-34.7H97.5l6.7-12.4v0
		c5.5-10.3,12.5-19.7,20.8-27.9c22-21.9,51.7-34.1,82.7-34.1c32.4,0,61.8,13.1,83,34.4C312.8,478.5,325.2,508.4,325.1,539.6
		L325.1,539.6z"/>
	<path class="st1" d="M207.7,438.9c-31.8-0.1-61.8,15-80.7,40.5l0,0c-0.1,0.1-0.2,0.2-0.3,0.4h142.9v68.2h-40.1v64.7h-70.3v-66.9
		h-51.8c2,24.1,12.3,46.7,29.2,64c18.2,18.7,43.4,30.5,71.1,30.5h0c26.7,0,52.3-10.6,71.2-29.5c18.9-18.9,29.5-44.5,29.5-71.2v0
		c0-26.7-10.6-52.3-29.5-71.2C260,449.5,234.4,438.9,207.7,438.9z"/>
	<path class="st1" d="M1836.1,370H91.3c-31.4,0-56.9,25.5-56.9,56.9v227.6c0,31.4,25.5,56.9,56.9,56.9h1744.8v0
		c31.4,0,56.9-25.5,56.9-56.9V426.9C1893,395.5,1867.5,370,1836.1,370z M358.3,643.9c0,12.3-4.9,24-13.6,32.7
		c-8.7,8.7-20.5,13.6-32.7,13.5v0H103.4c-12.3,0-24.1-4.9-32.7-13.6c-8.7-8.7-13.6-20.5-13.6-32.7V435.2c0-12.8,5.2-24.3,13.6-32.7
		l0,0c8.7-8.7,20.4-13.6,32.7-13.6H312c12.8,0,24.3,5.2,32.7,13.6c8.7,8.7,13.6,20.5,13.6,32.7V643.9z M1860.7,649.3
		C1860.7,649.3,1860.7,649.3,1860.7,649.3c0,21.6-17.5,39.1-39.1,39.1v0H449c0,0,0,0,0,0c-21.6,0-39.1-17.5-39.1-39.1V434.4
		c0,0,0,0,0,0c0-21.6,17.5-39.1,39.1-39.1h1372.7c0,0,0,0,0,0c21.6,0,39.1,17.5,39.1,39.1V649.3z"/>
</g>
</svg>
